<svg width="150" height="127" viewBox="0 0 150 127" fill="none" xmlns="http://www.w3.org/2000/svg">
<path d="M69.1802 22.0106C69.1747 22.0052 69.1693 21.9997 69.1638 21.9888C69.1148 21.9235 69.0658 21.8581 69.0113 21.7873C68.9296 21.6838 68.8479 21.5803 68.7662 21.4714C68.5102 21.15 68.2542 20.8395 67.9873 20.5345C61.1461 12.7292 46.6793 5.34878 44.8765 0C44.7403 7.76172 64.0057 16.6673 67.143 25.8724C67.1539 25.9051 67.1648 25.9378 67.1757 25.9704C67.2139 26.0794 67.2465 26.1883 67.2738 26.2972C60.7975 20.0824 50.0564 14.287 48.6075 9.97313C48.4877 16.9505 66.1027 24.9791 68.4285 33.2637L68.4448 33.2256C68.4503 33.2746 68.4503 33.3236 68.4503 33.3672C63.8205 28.4161 54.8605 23.7645 53.7112 20.3602C53.624 25.5129 66.5711 31.4336 68.3795 37.5504C64.5667 33.3236 56.8104 29.3366 55.83 26.4334C55.7537 30.7037 66.3587 35.6004 68.0581 40.666C67.3773 44.0539 65.9611 45.9058 64.1364 46.3742C64.1364 46.3742 73.8426 49.7839 73.8426 41.0472C73.8426 38.1713 73.8426 36.107 73.8426 36.107C73.8481 30.8345 72.0125 25.8397 69.1802 22.0106ZM68.4448 37.6321C68.4339 37.6212 68.4285 37.6157 68.4176 37.6049L68.4503 37.534C68.4503 37.5667 68.4448 37.5994 68.4448 37.6321Z" fill="#00CE8A"/>
<path d="M64.1418 46.3797L64.1636 46.4069C64.1418 46.4015 64.1146 46.4015 64.0928 46.3906C64.0928 46.3906 65.9719 55.0347 73.848 57.9215C73.848 55.5304 73.848 44.299 73.848 35.6985C73.848 49.3482 64.1418 46.3797 64.1418 46.3797Z" fill="white"/>
<path d="M64.1418 46.3797L64.1636 46.4069C64.1418 46.4015 64.1146 46.4015 64.0928 46.3906C64.0928 46.3906 65.9719 55.0347 73.848 57.9215C73.848 55.5304 73.848 44.299 73.848 35.6985C73.848 49.3482 64.1418 46.3797 64.1418 46.3797Z" fill="url(#paint0_linear)"/>
<path d="M76.1521 36.1124C76.1521 36.1124 76.1521 38.1768 76.1521 41.0527C76.1521 49.7894 85.8583 46.3797 85.8583 46.3797C84.0337 45.9112 82.6175 44.0593 81.9366 40.6714C83.636 35.6059 94.241 30.7092 94.1647 26.4389C93.1843 29.342 85.428 33.3291 81.6153 37.5558C83.4236 31.439 96.3707 25.5183 96.2835 20.3656C95.1343 23.7699 86.1742 28.4269 81.5444 33.3727C81.5444 33.3236 81.5499 33.2746 81.5499 33.231L81.5662 33.2692C83.8975 24.9791 101.507 16.9559 101.387 9.97856C99.9329 14.287 89.1972 20.0824 82.721 26.3027C82.7536 26.1937 82.7863 26.0848 82.819 25.9759C82.8299 25.9432 82.8408 25.9105 82.8517 25.8778C85.9891 16.6727 105.249 7.76715 105.118 0.00543213C103.315 5.35421 88.8486 12.7347 82.0074 20.5399C81.7405 20.845 81.4791 21.1554 81.2285 21.4768C81.1468 21.5803 81.0651 21.6838 80.9834 21.7927C80.9344 21.8581 80.8799 21.9234 80.8309 21.9942C80.8255 21.9997 80.82 22.0051 80.8146 22.016C77.9877 25.8397 76.1521 30.8344 76.1521 36.1124ZM81.5499 37.5286L81.5826 37.5994C81.5717 37.6103 81.5662 37.6157 81.5554 37.6266C81.5499 37.5994 81.5499 37.5667 81.5499 37.5286Z" fill="#00CE8A"/>
<path d="M85.8583 46.3797L85.8365 46.4069C85.8583 46.4015 85.8856 46.4015 85.9074 46.3906C85.9074 46.3906 84.0282 55.0347 76.1521 57.9215C76.1521 55.5304 76.1521 44.299 76.1521 35.6985C76.1521 49.3482 85.8583 46.3797 85.8583 46.3797Z" fill="white"/>
<path d="M85.8583 46.3797L85.8365 46.4069C85.8583 46.4015 85.8856 46.4015 85.9074 46.3906C85.9074 46.3906 84.0282 55.0347 76.1521 57.9215C76.1521 55.5304 76.1521 44.299 76.1521 35.6985C76.1521 49.3482 85.8583 46.3797 85.8583 46.3797Z" fill="url(#paint1_linear)"/>
<path d="M13.3229 87.3888L0 66.6582H6.11679L17.2065 83.6087L28.3017 66.6582H30.7909L18.5083 85.526V102.939H13.3229V87.3888Z" fill="#00B277"/>
<path d="M51.3635 66.2933C61.9902 66.2933 69.7628 74.1694 69.7628 84.7961C69.7628 95.4229 61.9902 103.353 51.3635 103.353C40.7367 103.353 32.9641 95.4229 32.9641 84.7961C32.9641 74.1694 40.7422 66.2933 51.3635 66.2933ZM51.3635 101.485C58.8801 101.485 64.425 94.5895 64.425 84.7961C64.425 75.0027 58.8801 68.1615 51.3635 68.1615C43.9013 68.1615 38.3565 75.0027 38.3565 84.7961C38.3565 94.5895 43.9013 101.485 51.3635 101.485Z" fill="#00B277"/>
<path d="M94.1264 66.2933C104.753 66.2933 112.526 74.1694 112.526 84.7961C112.526 95.4229 104.753 103.353 94.1264 103.353C83.4997 103.353 75.7271 95.4229 75.7271 84.7961C75.7271 74.1694 83.4997 66.2933 94.1264 66.2933ZM94.1264 101.485C101.643 101.485 107.188 94.5895 107.188 84.7961C107.188 75.0027 101.643 68.1615 94.1264 68.1615C86.6643 68.1615 81.1194 75.0027 81.1194 84.7961C81.1194 94.5895 86.6588 101.485 94.1264 101.485Z" fill="#00B277"/>
<path d="M147.925 66.6582H150V89.2026C150 97.6506 144.608 103.353 135.539 103.353C126.573 103.353 119.939 97.8086 119.939 89.2026V66.6582H125.124V89.464C125.124 97.2911 130.724 101.333 136.889 101.333C142.696 101.333 147.93 97.7541 147.93 89.464V66.6582H147.925Z" fill="#00B277"/>
<path d="M41.3794 120.516C43.5091 121.437 44.5931 122.09 44.5931 123.654C44.5931 125.304 43.3948 126.279 40.8838 126.279C38.2148 126.279 36.7987 125.141 36.7224 123.114H38.1822C38.1822 124.574 39.0863 125.756 40.9274 125.756C42.1257 125.756 43.1333 125.26 43.1333 124.019C43.1333 122.907 42.3435 122.559 40.0668 121.508C38.2257 120.663 37.0329 120.124 37.0329 118.474C37.0329 116.84 38.1549 115.848 40.5951 115.848C43.0625 115.848 44.3588 116.872 44.3915 118.724H42.9154C42.9154 117.308 42.142 116.404 40.6114 116.377C39.2715 116.349 38.4817 117.003 38.4817 118.071C38.4763 119.274 39.5003 119.71 41.3794 120.516Z" fill="#00B277"/>
<path d="M61.0535 121.23H54.9966V126.165H53.5369V115.946H54.9966V120.658H61.0535V115.946H62.5132V126.165H61.0535V121.23Z" fill="#00B277"/>
<path d="M77.9821 123.109H73.0473L71.691 126.159H70.9448L75.4385 115.941H76.2391L81.0106 126.159H79.3602L77.9821 123.109ZM73.3142 122.543H77.737L75.5201 117.624L73.3142 122.543Z" fill="#00B277"/>
<path d="M89.4421 115.946H92.9608C95.2103 115.946 96.7136 117.014 96.7136 118.79C96.7136 120.249 95.7387 121.214 94.1754 121.519L97.2692 126.159H95.6951L92.6721 121.633H90.9073V126.159H89.4476V115.946H89.4421ZM90.9019 116.513V121.066H92.6067C94.1809 121.066 95.1885 120.277 95.1885 118.806C95.1885 117.33 94.1809 116.513 92.5904 116.513H90.9019Z" fill="#00B277"/>
<path d="M105.903 115.946H113.125V116.513H107.362V120.658H112.689V121.224H107.362V125.587H113.272V126.154H105.903V115.946Z" fill="#00B277"/>
<defs>
<linearGradient id="paint0_linear" x1="69.6168" y1="23.198" x2="69.0714" y2="57.9136" gradientUnits="userSpaceOnUse">
<stop offset="0.411458" stop-color="#018F4B"/>
<stop offset="1" stop-color="#03AC79"/>
</linearGradient>
<linearGradient id="paint1_linear" x1="81.6762" y1="23.198" x2="81.1307" y2="57.9136" gradientUnits="userSpaceOnUse">
<stop offset="0.411458" stop-color="#018F4B"/>
<stop offset="1" stop-color="#03AC79"/>
</linearGradient>
</defs>
</svg>
