<svg width="30" height="29" viewBox="0 0 30 29" fill="none" xmlns="http://www.w3.org/2000/svg">
<path fill-rule="evenodd" clip-rule="evenodd" d="M11.462 0.267676C8.33886 0.998196 5.29636 3.4776 4.63898 5.82804C3.62419 9.45416 5.08079 12.4174 8.80483 14.3036L10.0638 14.941L4.76575 20.2076C-0.477344 25.4197 -0.520961 25.4742 0.559099 25.4742C1.55036 25.4742 2.11518 25.0134 6.72661 20.4415L11.8028 15.4092L15.6733 16.2248L10.5513 21.3178C7.78345 24.0675 6.66073 25.1829 6.8679 25.929C7.00927 26.4382 7.76995 26.7754 9.04974 27.3427L9.37813 27.4885C13.2384 29.2084 17.3835 29.2377 21.0366 27.5704C23.272 26.5502 24.428 25.5147 25.4861 23.5848C27.4931 19.9235 26.0739 16.1684 21.9573 14.2472L20.5421 13.5868L25.5304 8.62706C30.4785 3.7075 30.5099 3.66763 29.4276 3.66763C28.4398 3.66763 27.8866 4.11373 23.5739 8.38844L18.8112 13.1096L14.9416 12.2943L19.7623 7.49947C22.107 5.17025 23.1506 4.13352 23.1584 3.42675C23.1646 2.85983 22.5043 2.5052 21.3145 1.86612C21.2136 1.81192 21.108 1.75522 20.9996 1.69663C18.2282 0.199141 14.2814 -0.392128 11.462 0.267676ZM19.7002 5.2025C19.7002 5.09814 19.0296 4.65453 18.2097 4.21684C13.9798 1.95831 8.40381 3.78944 8.40381 7.43705C8.40381 8.9794 9.78165 10.5897 11.735 11.3305L13.1546 11.8685L16.4274 8.63018C18.2273 6.84921 19.7002 5.30686 19.7002 5.2025ZM21.6121 22.9412C23.0213 20.9764 22.1201 18.7758 19.3205 17.3459C18.6801 17.0192 17.9718 16.7516 17.7465 16.7516C17.1174 16.7516 10.1764 23.7991 10.4199 24.1904C10.5366 24.3779 11.4268 24.7608 12.398 25.0412C15.7822 26.0178 20.1135 25.0309 21.6121 22.9412Z" fill="white"/>
</svg>
