<svg width="42" height="42" viewBox="0 0 42 42" fill="none" xmlns="http://www.w3.org/2000/svg">
<path d="M33.3867 0H8.61328C3.86392 0 0 3.86392 0 8.61328V33.3867C0 38.1361 3.86392 42 8.61328 42H33.3867C38.1361 42 42 38.1361 42 33.3867V8.61328C42 3.86392 38.1361 0 33.3867 0ZM12.9321 32.3626C12.5528 33.0197 11.862 33.3875 11.1526 33.3875C10.8049 33.3875 10.4528 33.2992 10.1307 33.1132C9.15141 32.5479 8.81467 31.2911 9.38003 30.3119L9.78337 29.6133H14.5194L12.9321 32.3626ZM9.06445 27.9727C7.93365 27.9727 7.01367 27.0527 7.01367 25.9219C7.01367 24.7911 7.93365 23.8711 9.06445 23.8711H13.0986L18.6319 14.2871L17.1323 11.6896C16.5669 10.7103 16.9036 9.45361 17.8829 8.88817H17.883C18.8623 8.32281 20.119 8.65963 20.6843 9.63884L21 10.1856L21.3157 9.63892C21.8813 8.65955 23.138 8.32289 24.117 8.88825C24.5914 9.16215 24.9308 9.60438 25.0725 10.1335C25.2144 10.6626 25.1415 11.2153 24.8676 11.6897L17.8347 23.8711H22.2708L24.6389 27.9727H9.06445ZM32.9355 27.9727H31.2694L32.6199 30.3118C33.1853 31.291 32.8486 32.5477 31.8694 33.1131C31.5533 33.2956 31.2026 33.3889 30.8472 33.3889C30.669 33.3889 30.4899 33.3655 30.3131 33.3181C29.7839 33.1762 29.3417 32.8369 29.0678 32.3624L21.9471 20.0292L24.3151 15.9276L28.9014 23.8711H32.9355C34.0663 23.8711 34.9863 24.7911 34.9863 25.9219C34.9863 27.0527 34.0663 27.9727 32.9355 27.9727Z" fill="white"/>
<path d="M33.3867 0H8.61328C3.86392 0 0 3.86392 0 8.61328V33.3867C0 38.1361 3.86392 42 8.61328 42H33.3867C38.1361 42 42 38.1361 42 33.3867V8.61328C42 3.86392 38.1361 0 33.3867 0ZM12.9321 32.3626C12.5528 33.0197 11.862 33.3875 11.1526 33.3875C10.8049 33.3875 10.4528 33.2992 10.1307 33.1132C9.15141 32.5479 8.81467 31.2911 9.38003 30.3119L9.78337 29.6133H14.5194L12.9321 32.3626ZM9.06445 27.9727C7.93365 27.9727 7.01367 27.0527 7.01367 25.9219C7.01367 24.7911 7.93365 23.8711 9.06445 23.8711H13.0986L18.6319 14.2871L17.1323 11.6896C16.5669 10.7103 16.9036 9.45361 17.8829 8.88817H17.883C18.8623 8.32281 20.119 8.65963 20.6843 9.63884L21 10.1856L21.3157 9.63892C21.8813 8.65955 23.138 8.32289 24.117 8.88825C24.5914 9.16215 24.9308 9.60438 25.0725 10.1335C25.2144 10.6626 25.1415 11.2153 24.8676 11.6897L17.8347 23.8711H22.2708L24.6389 27.9727H9.06445ZM32.9355 27.9727H31.2694L32.6199 30.3118C33.1853 31.291 32.8486 32.5477 31.8694 33.1131C31.5533 33.2956 31.2026 33.3889 30.8472 33.3889C30.669 33.3889 30.4899 33.3655 30.3131 33.3181C29.7839 33.1762 29.3417 32.8369 29.0678 32.3624L21.9471 20.0292L24.3151 15.9276L28.9014 23.8711H32.9355C34.0663 23.8711 34.9863 24.7911 34.9863 25.9219C34.9863 27.0527 34.0663 27.9727 32.9355 27.9727Z" fill="url(#paint0_linear)"/>
<defs>
<linearGradient id="paint0_linear" x1="23.7831" y1="-23.625" x2="23.3305" y2="41.998" gradientUnits="userSpaceOnUse">
<stop offset="0.411458" stop-color="#0CC46C"/>
<stop offset="1" stop-color="#03AC79"/>
</linearGradient>
</defs>
</svg>
