<svg width="70" height="70" viewBox="0 0 70 70" fill="none" xmlns="http://www.w3.org/2000/svg">
<rect y="18" width="70" height="34" fill="#00CE8A"/>
<path d="M0 17.9844V52.0157H70V17.9844H0ZM4.308 47.8761V22.1238H22.0614V47.8761H4.308ZM26.1233 47.8761V22.1238H43.8766V47.8761H26.1233ZM47.9386 41.0649V36.2067H50.5561V33.7929H47.9386V28.9347H50.5561V26.5212H47.9386V22.1237H54.0076L53.316 27.3959L53.6924 27.3379C54.3203 27.2414 54.9617 27.1981 55.7723 27.1981C57.6554 27.1981 59.9003 27.6577 59.9003 29.8467C59.9003 31.6009 58.3046 32.3999 56.822 32.3999C55.3813 32.3999 54.0844 31.9114 53.5453 31.6228L53.2277 31.4529L52.4804 34.2342L52.6746 34.3428C53.4906 34.7985 55.034 35.2857 56.9174 35.2857C60.7183 35.2857 63.4771 32.9081 63.4771 29.6324C63.4771 27.8198 62.7097 26.3361 61.3207 25.4575C60.294 24.7809 58.8997 24.4084 57.3943 24.4084C57.102 24.4084 56.8591 24.4177 56.6096 24.4402L56.948 22.1238H65.6917V47.8759H56.411C57.0666 46.8857 58.2969 45.8137 60.5896 45.5444C61.1691 45.4748 61.6414 45.4748 62.0583 45.4748H62.347L62.3171 42.6317L62.0533 42.6138C61.5984 42.5837 61.085 42.6001 60.5309 42.6621C58.2309 42.8599 56.3196 43.6559 54.8471 45.0304C54.0353 45.8062 53.3841 46.7628 52.9097 47.8764H47.9386V43.4785H50.5561V41.0649H47.9386Z" fill="white"/>
<path d="M0 17.9844V52.0157H70V17.9844H0ZM4.308 47.8761V22.1238H22.0614V47.8761H4.308ZM26.1233 47.8761V22.1238H43.8766V47.8761H26.1233ZM47.9386 41.0649V36.2067H50.5561V33.7929H47.9386V28.9347H50.5561V26.5212H47.9386V22.1237H54.0076L53.316 27.3959L53.6924 27.3379C54.3203 27.2414 54.9617 27.1981 55.7723 27.1981C57.6554 27.1981 59.9003 27.6577 59.9003 29.8467C59.9003 31.6009 58.3046 32.3999 56.822 32.3999C55.3813 32.3999 54.0844 31.9114 53.5453 31.6228L53.2277 31.4529L52.4804 34.2342L52.6746 34.3428C53.4906 34.7985 55.034 35.2857 56.9174 35.2857C60.7183 35.2857 63.4771 32.9081 63.4771 29.6324C63.4771 27.8198 62.7097 26.3361 61.3207 25.4575C60.294 24.7809 58.8997 24.4084 57.3943 24.4084C57.102 24.4084 56.8591 24.4177 56.6096 24.4402L56.948 22.1238H65.6917V47.8759H56.411C57.0666 46.8857 58.2969 45.8137 60.5896 45.5444C61.1691 45.4748 61.6414 45.4748 62.0583 45.4748H62.347L62.3171 42.6317L62.0533 42.6138C61.5984 42.5837 61.085 42.6001 60.5309 42.6621C58.2309 42.8599 56.3196 43.6559 54.8471 45.0304C54.0353 45.8062 53.3841 46.7628 52.9097 47.8764H47.9386V43.4785H50.5561V41.0649H47.9386Z" fill="url(#paint0_linear)"/>
<path d="M16.6482 33.3421C15.6215 32.6655 14.227 32.2928 12.7216 32.2928C12.4293 32.2928 12.1866 32.3021 11.9369 32.3248L12.3008 29.8345H18.3036V26.8298H9.75176L8.64333 35.2807L9.01976 35.2227C9.64733 35.126 10.2888 35.0828 11.0995 35.0828C12.9826 35.0828 15.2275 35.5424 15.2275 37.7314C15.2275 39.4857 13.6319 40.2847 12.1493 40.2847C10.7085 40.2847 9.41176 39.7961 8.87276 39.5077L8.55533 39.3378L7.80762 42.1191L8.0019 42.2277C8.81805 42.6835 10.3612 43.1707 12.2449 43.1707C16.0458 43.1707 18.8046 40.793 18.8046 37.5174C18.8046 35.7043 18.0372 34.2203 16.6482 33.3421Z" fill="white"/>
<path d="M16.6482 33.3421C15.6215 32.6655 14.227 32.2928 12.7216 32.2928C12.4293 32.2928 12.1866 32.3021 11.9369 32.3248L12.3008 29.8345H18.3036V26.8298H9.75176L8.64333 35.2807L9.01976 35.2227C9.64733 35.126 10.2888 35.0828 11.0995 35.0828C12.9826 35.0828 15.2275 35.5424 15.2275 37.7314C15.2275 39.4857 13.6319 40.2847 12.1493 40.2847C10.7085 40.2847 9.41176 39.7961 8.87276 39.5077L8.55533 39.3378L7.80762 42.1191L8.0019 42.2277C8.81805 42.6835 10.3612 43.1707 12.2449 43.1707C16.0458 43.1707 18.8046 40.793 18.8046 37.5174C18.8046 35.7043 18.0372 34.2203 16.6482 33.3421Z" fill="url(#paint1_linear)"/>
<path d="M35.4414 32.1212C34.2796 32.1212 33.2259 32.466 32.3947 33.1062C32.8529 31.816 34.0417 30.0232 37.1216 29.661C37.7012 29.5915 38.1733 29.5915 38.5902 29.5915H38.8789L38.8489 26.7482L38.5852 26.7305C38.1297 26.7003 37.6167 26.7169 37.0626 26.7786C34.7627 26.9766 32.8513 27.7726 31.379 29.147C29.5836 30.863 28.5947 33.4102 28.5947 36.3195C28.5947 40.5508 31.0012 43.285 34.7254 43.285C38.0026 43.285 40.4739 40.7828 40.4739 37.4647C40.474 34.3185 38.4046 32.1212 35.4414 32.1212ZM32.239 36.2772C32.6646 35.4038 33.5563 34.8393 34.511 34.8393C35.9974 34.8393 36.921 35.9093 36.921 37.6313C36.921 39.3582 36.0292 40.5183 34.7017 40.5183C32.8252 40.5183 32.1154 38.7402 32.077 37.0825C32.077 36.7537 32.128 36.4989 32.239 36.2772Z" fill="white"/>
<path d="M35.4414 32.1212C34.2796 32.1212 33.2259 32.466 32.3947 33.1062C32.8529 31.816 34.0417 30.0232 37.1216 29.661C37.7012 29.5915 38.1733 29.5915 38.5902 29.5915H38.8789L38.8489 26.7482L38.5852 26.7305C38.1297 26.7003 37.6167 26.7169 37.0626 26.7786C34.7627 26.9766 32.8513 27.7726 31.379 29.147C29.5836 30.863 28.5947 33.4102 28.5947 36.3195C28.5947 40.5508 31.0012 43.285 34.7254 43.285C38.0026 43.285 40.4739 40.7828 40.4739 37.4647C40.474 34.3185 38.4046 32.1212 35.4414 32.1212ZM32.239 36.2772C32.6646 35.4038 33.5563 34.8393 34.511 34.8393C35.9974 34.8393 36.921 35.9093 36.921 37.6313C36.921 39.3582 36.0292 40.5183 34.7017 40.5183C32.8252 40.5183 32.1154 38.7402 32.077 37.0825C32.077 36.7537 32.128 36.4989 32.239 36.2772Z" fill="url(#paint2_linear)"/>
<defs>
<linearGradient id="paint0_linear" x1="39.6386" y1="-1.15822" x2="39.4602" y2="52.016" gradientUnits="userSpaceOnUse">
<stop offset="0.411458" stop-color="#018F4B"/>
<stop offset="1" stop-color="#03AC79"/>
</linearGradient>
<linearGradient id="paint1_linear" x1="14.0348" y1="17.6381" x2="13.7732" y2="43.1684" gradientUnits="userSpaceOnUse">
<stop offset="0.411458" stop-color="#018F4B"/>
<stop offset="1" stop-color="#03AC79"/>
</linearGradient>
<linearGradient id="paint2_linear" x1="35.3215" y1="17.3956" x2="35.0724" y2="43.2831" gradientUnits="userSpaceOnUse">
<stop offset="0.411458" stop-color="#018F4B"/>
<stop offset="1" stop-color="#03AC79"/>
</linearGradient>
</defs>
</svg>
