<svg width="70" height="70" viewBox="0 0 70 70" fill="none" xmlns="http://www.w3.org/2000/svg">
<g clip-path="url(#clip0)">
<path d="M54.0424 24.7973L39.1947 28.0441L46.4539 2.61943C47.0854 0.408883 44.1299 -1.00603 42.8052 0.876419L36.2802 10.1465L13.8425 42.0251C12.7543 43.5712 14.1734 45.6478 16.0093 45.1953L29.2411 41.9389L22.0039 67.3882C21.3805 69.581 24.2828 70.9781 25.6239 69.1695L36.2802 54.7948L56.1286 28.0209C57.2537 26.502 55.8893 24.3927 54.0424 24.7973Z" fill="#00B277"/>
<path d="M56.1287 28.0209L36.2803 54.7948V10.1465L42.8053 0.876419C44.13 -1.00603 47.0855 0.408883 46.454 2.61943L39.1949 28.0441L54.0425 24.7973C55.8894 24.3927 57.2538 26.502 56.1287 28.0209Z" fill="white"/>
<path d="M56.1287 28.0209L36.2803 54.7948V10.1465L42.8053 0.876419C44.13 -1.00603 47.0855 0.408883 46.454 2.61943L39.1949 28.0441L54.0425 24.7973C55.8894 24.3927 57.2538 26.502 56.1287 28.0209Z" fill="url(#paint0_linear)"/>
<path d="M52.719 57.696L47.7977 57.614L50.4116 52.4734C50.9249 51.4638 50.5227 50.2294 49.5131 49.7162C48.5034 49.2027 47.2691 49.605 46.7558 50.6146L42.6546 58.6803C41.8203 60.316 42.9121 61.388 44.4847 61.6606L49.3943 61.7425L46.7497 67.0318C46.2432 68.0448 46.6538 69.2764 47.6668 69.7831C48.6817 70.2905 49.9123 69.877 50.4178 68.866L54.519 60.6636C55.1926 59.316 54.2179 57.7182 52.719 57.696Z" fill="white"/>
<path d="M52.719 57.696L47.7977 57.614L50.4116 52.4734C50.9249 51.4638 50.5227 50.2294 49.5131 49.7162C48.5034 49.2027 47.2691 49.605 46.7558 50.6146L42.6546 58.6803C41.8203 60.316 42.9121 61.388 44.4847 61.6606L49.3943 61.7425L46.7497 67.0318C46.2432 68.0448 46.6538 69.2764 47.6668 69.7831C48.6817 70.2905 49.9123 69.877 50.4178 68.866L54.519 60.6636C55.1926 59.316 54.2179 57.7182 52.719 57.696Z" fill="url(#paint1_linear)"/>
<path d="M20.7925 0.222002C19.7795 -0.284359 18.5478 0.126171 18.0413 1.13903L13.9401 9.34142C13.2731 10.6755 14.2243 12.309 15.7862 12.309H20.6587L18.0413 17.5438C17.5348 18.5568 17.9455 19.7884 18.9583 20.295C19.9732 20.8025 21.204 20.3889 21.7095 19.378L25.8107 11.1756C26.493 9.81087 25.4895 8.20798 23.9765 8.20798H19.0922L21.7095 2.97322C22.216 1.96022 21.8054 0.7285 20.7925 0.222002Z" fill="white"/>
<path d="M20.7925 0.222002C19.7795 -0.284359 18.5478 0.126171 18.0413 1.13903L13.9401 9.34142C13.2731 10.6755 14.2243 12.309 15.7862 12.309H20.6587L18.0413 17.5438C17.5348 18.5568 17.9455 19.7884 18.9583 20.295C19.9732 20.8025 21.204 20.3889 21.7095 19.378L25.8107 11.1756C26.493 9.81087 25.4895 8.20798 23.9765 8.20798H19.0922L21.7095 2.97322C22.216 1.96022 21.8054 0.7285 20.7925 0.222002Z" fill="url(#paint2_linear)"/>
</g>
<defs>
<linearGradient id="paint0_linear" x1="47.751" y1="-30.8221" x2="46.1541" y2="54.7665" gradientUnits="userSpaceOnUse">
<stop offset="0.411458" stop-color="#018F4B"/>
<stop offset="1" stop-color="#03AC79"/>
</linearGradient>
<linearGradient id="paint1_linear" x1="49.3711" y1="37.9576" x2="49.0048" y2="69.9965" gradientUnits="userSpaceOnUse">
<stop offset="0.411458" stop-color="#018F4B"/>
<stop offset="1" stop-color="#03AC79"/>
</linearGradient>
<linearGradient id="paint2_linear" x1="20.6918" y1="-11.53" x2="20.3235" y2="20.5084" gradientUnits="userSpaceOnUse">
<stop offset="0.411458" stop-color="#018F4B"/>
<stop offset="1" stop-color="#03AC79"/>
</linearGradient>
<clipPath id="clip0">
<rect width="70" height="70" fill="white"/>
</clipPath>
</defs>
</svg>
