<svg width="70" height="70" viewBox="0 0 70 70" fill="none" xmlns="http://www.w3.org/2000/svg">
<g clip-path="url(#clip0)">
<path d="M48.3379 32.4665V35.3616C48.3379 36.0885 48.0852 36.7935 47.6234 37.3536L44.2077 41.5071V59.2408C44.2077 59.8364 43.7249 60.3192 43.1293 60.3192H26.8717C26.2761 60.3192 25.7933 59.8364 25.7933 59.2408V41.5071L22.3776 37.3536C21.9158 36.7935 21.6631 36.0885 21.6631 35.3616V32.4665V27.2282L37.4038 27.0465C36.6401 27.0465 35.9474 27.3567 35.446 27.8581C34.9459 28.3595 34.6358 29.0508 34.6358 29.8159C34.6358 31.3448 35.875 32.5854 37.4038 32.5854L48.3379 32.4665Z" fill="#00CE8A"/>
<path d="M8.45246 40.4704H2.86772C2.12595 40.4704 1.52457 39.869 1.52457 39.1272V18.1748C1.52457 17.4331 2.12595 16.8317 2.86772 16.8317H8.45246V40.4704Z" fill="#00B277" stroke="#00B277" stroke-width="0.999327"/>
<path d="M67.1327 40.4704H61.548V16.8317H67.1327C67.8745 16.8317 68.4759 17.4331 68.4759 18.1748V39.1272C68.4759 39.869 67.8745 40.4704 67.1327 40.4704Z" fill="#00B277" stroke="#00B277" stroke-width="0.999327"/>
<path d="M9.74414 32.4661V24.8358H60.5275V32.5853L9.74414 32.4661Z" fill="#00B277"/>
<path d="M34.828 20.4966V24.6104C34.828 26.2362 33.5095 27.5547 31.8823 27.5547C30.2564 27.5547 28.938 26.2362 28.938 24.6104V20.4966C28.938 18.8707 30.2564 17.5522 31.8823 17.5522C32.6966 17.5522 33.4316 17.8815 33.9659 18.4144C34.4987 18.9472 34.828 19.6836 34.828 20.4966Z" fill="#00CE8A"/>
<path d="M40.8344 19.5434V24.3432C40.8344 26.2401 39.4634 27.7784 37.7713 27.7784C36.0805 27.7784 34.7095 26.2401 34.7095 24.3432V19.5434C34.7095 17.6464 36.0805 16.1082 37.7713 16.1082C38.6181 16.1082 39.3824 16.4923 39.9379 17.114C40.4919 17.7357 40.8344 18.5949 40.8344 19.5434Z" fill="#00CE8A"/>
<path d="M46.6053 20.9093V25.0231C46.6053 26.649 45.2869 27.9674 43.6596 27.9674C42.0338 27.9674 40.7153 26.649 40.7153 25.0231V20.9093C40.7153 19.2834 42.0338 17.965 43.6596 17.965C44.4739 17.965 45.209 18.2942 45.7432 18.8271C46.276 19.3599 46.6053 20.0963 46.6053 20.9093Z" fill="#00CE8A"/>
<path d="M28.9379 21.3217V24.6104C28.9379 26.2362 27.6208 27.5547 25.9936 27.5547C24.3678 27.5547 23.0493 26.2362 23.0493 24.6104V21.3217C23.0493 19.6959 24.3678 18.3774 25.9936 18.3774C26.8079 18.3774 27.543 18.7067 28.0758 19.2396C28.6087 19.7724 28.9379 20.5088 28.9379 21.3217Z" fill="#00CE8A"/>
<path d="M31.3303 24.6103V20.4964C31.3303 19.2966 32.0521 18.2649 33.0819 17.8062C32.716 17.6434 32.3093 17.5521 31.8823 17.5521C30.2564 17.5521 28.938 18.8706 28.938 20.4964V24.6103C28.938 26.2361 30.2564 27.5546 31.8823 27.5546C32.3088 27.5546 32.7183 27.4621 33.0842 27.2992C32.0546 26.8405 31.3303 25.8101 31.3303 24.6103Z" fill="white"/>
<path d="M31.3303 24.6103V20.4964C31.3303 19.2966 32.0521 18.2649 33.0819 17.8062C32.716 17.6434 32.3093 17.5521 31.8823 17.5521C30.2564 17.5521 28.938 18.8706 28.938 20.4964V24.6103C28.938 26.2361 30.2564 27.5546 31.8823 27.5546C32.3088 27.5546 32.7183 27.4621 33.0842 27.2992C32.0546 26.8405 31.3303 25.8101 31.3303 24.6103Z" fill="url(#paint0_linear)"/>
<path d="M37.1015 24.3432V20.5063V19.5435C37.1015 18.1224 37.8709 16.9028 38.9676 16.3802C38.6001 16.2051 38.1958 16.1083 37.7708 16.1083C36.08 16.1083 34.709 17.6466 34.709 19.5436V24.3434C34.709 26.2404 36.08 27.7787 37.7708 27.7787C38.1954 27.7787 38.5998 27.6816 38.9674 27.5066C37.8708 26.9838 37.1015 25.7641 37.1015 24.3432Z" fill="white"/>
<path d="M37.1015 24.3432V20.5063V19.5435C37.1015 18.1224 37.8709 16.9028 38.9676 16.3802C38.6001 16.2051 38.1958 16.1083 37.7708 16.1083C36.08 16.1083 34.709 17.6466 34.709 19.5436V24.3434C34.709 26.2404 36.08 27.7787 37.7708 27.7787C38.1954 27.7787 38.5998 27.6816 38.9674 27.5066C37.8708 26.9838 37.1015 25.7641 37.1015 24.3432Z" fill="url(#paint1_linear)"/>
<path d="M43.1077 25.0229V20.909C43.1077 19.7092 43.8308 18.6782 44.8604 18.2194C44.4945 18.0566 44.0864 17.9646 43.6596 17.9646C42.0338 17.9646 40.7153 19.283 40.7153 20.9089V25.0227C40.7153 26.6486 42.0338 27.967 43.6596 27.967C44.0862 27.967 44.4903 27.8745 44.8562 27.7117C43.8266 27.2532 43.1077 26.2227 43.1077 25.0229Z" fill="white"/>
<path d="M43.1077 25.0229V20.909C43.1077 19.7092 43.8308 18.6782 44.8604 18.2194C44.4945 18.0566 44.0864 17.9646 43.6596 17.9646C42.0338 17.9646 40.7153 19.283 40.7153 20.9089V25.0227C40.7153 26.6486 42.0338 27.967 43.6596 27.967C44.0862 27.967 44.4903 27.8745 44.8562 27.7117C43.8266 27.2532 43.1077 26.2227 43.1077 25.0229Z" fill="url(#paint2_linear)"/>
<path d="M25.4416 24.6102V21.3216C25.4416 20.1219 26.1637 19.0904 27.1933 18.6316C26.8277 18.4687 26.4206 18.3772 25.9936 18.3772C24.3678 18.3772 23.0493 19.6956 23.0493 21.3215V24.6101C23.0493 26.236 24.3678 27.5544 25.9936 27.5544C26.4202 27.5544 26.8287 27.4623 27.1944 27.2993C26.165 26.8408 25.4416 25.81 25.4416 24.6102Z" fill="white"/>
<path d="M25.4416 24.6102V21.3216C25.4416 20.1219 26.1637 19.0904 27.1933 18.6316C26.8277 18.4687 26.4206 18.3772 25.9936 18.3772C24.3678 18.3772 23.0493 19.6956 23.0493 21.3215V24.6101C23.0493 26.236 24.3678 27.5544 25.9936 27.5544C26.4202 27.5544 26.8287 27.4623 27.1944 27.2993C26.165 26.8408 25.4416 25.81 25.4416 24.6102Z" fill="url(#paint3_linear)"/>
<path d="M48.3375 29.1697V32.5568L37.4033 32.5854C35.8745 32.5854 34.6353 31.3448 34.6353 29.8159C34.6353 29.0508 34.9454 28.3595 35.4455 27.8581C35.9469 27.3567 36.6396 27.0465 37.4033 27.0465H46.2144C47.3866 27.0465 48.3375 27.9974 48.3375 29.1697Z" fill="#00CE8A"/>
<path d="M13.2036 47.6215H10.0742C8.47346 47.6215 7.17578 46.3238 7.17578 44.7231V12.5788C7.17578 10.9781 8.47346 9.68042 10.0742 9.68042H13.2036C14.8043 9.68042 16.102 10.9781 16.102 12.5788V44.7233C16.1019 46.3238 14.8043 47.6215 13.2036 47.6215Z" fill="#00B277"/>
<path d="M59.9258 47.1219H56.7964C55.4716 47.1219 54.3976 46.0479 54.3976 44.7233V12.5788C54.3976 11.2541 55.4716 10.1801 56.7964 10.1801H59.9258C61.2506 10.1801 62.3245 11.2541 62.3245 12.5788V44.7231C62.3245 46.0479 61.2506 47.1219 59.9258 47.1219Z" fill="#00B277" stroke="#00B277" stroke-width="0.999327"/>
<path d="M67.1325 15.3073H63.8489V12.5787C63.8489 10.4155 62.089 8.65564 59.926 8.65564H56.7965C54.6333 8.65564 52.8736 10.4155 52.8736 12.5787V23.8111H47.6294V20.7955C47.6294 18.6068 45.8489 16.8265 43.6604 16.8265C42.8005 16.8265 42.0045 17.1023 41.3542 17.5689C40.7148 16.2327 39.3494 15.3073 37.7718 15.3073C36.2804 15.3073 34.9788 16.1342 34.3008 17.3536C33.6308 16.837 32.7927 16.5281 31.8831 16.5281C30.5026 16.5281 29.2857 17.2373 28.5745 18.3098C27.88 17.7141 26.9789 17.3532 25.9945 17.3532C23.8058 17.3532 22.0255 19.1335 22.0255 21.3222V23.8114H17.1268V20.9187C17.1268 20.3527 16.668 19.894 16.1021 19.894C15.5362 19.894 15.0774 20.3527 15.0774 20.9187V44.7234C15.0774 45.7566 14.2369 46.597 13.2039 46.597H10.074C9.04086 46.597 8.20047 45.7566 8.20047 44.7234V12.5787C8.20047 11.5456 9.041 10.705 10.074 10.705H13.2035C14.2366 10.705 15.077 11.5456 15.077 12.5787V16.5516C15.077 17.1176 15.5358 17.5763 16.1017 17.5763C16.6676 17.5763 17.1264 17.1176 17.1264 16.5516V12.5787C17.1264 10.4155 15.3665 8.65564 13.2035 8.65564H10.074C7.91082 8.65564 6.15107 10.4155 6.15107 12.5787V15.3073H2.86752C1.28634 15.3073 0 16.5936 0 18.1747V39.1272C0 40.7084 1.28634 41.9947 2.86752 41.9947H6.15107V44.7233C6.15107 46.8864 7.91096 48.6463 10.074 48.6463H13.2035C15.3667 48.6463 17.1264 46.8864 17.1264 44.7233V33.491H20.638V35.3621C20.638 36.3236 20.9744 37.2623 21.5854 38.0051L24.7677 41.8741V60.3197C24.7677 60.8857 25.2265 61.3444 25.7924 61.3444C26.3583 61.3444 26.8171 60.8857 26.8171 60.3197V41.5068C26.8171 41.2694 26.7346 41.0393 26.5837 40.8558L23.1681 36.703C22.8581 36.3262 22.6873 35.85 22.6873 35.3621V33.491L42.0661 33.6094C42.632 33.6094 43.0908 33.1508 43.0908 32.5847C43.0908 32.0187 42.632 31.56 42.0661 31.56H37.4037C36.4419 31.56 35.6593 30.7774 35.6593 29.8157C35.6593 28.8538 36.4419 28.0712 37.4037 28.0712H46.2144C46.8198 28.0712 47.3123 28.5637 47.3123 29.169V35.3619C47.3123 35.8498 47.1415 36.3262 46.8315 36.7029L43.4159 40.8557C43.265 41.0392 43.1825 41.2691 43.1825 41.5067V44.2093C43.1825 44.7754 43.6413 45.234 44.2072 45.234C44.7731 45.234 45.2319 44.7754 45.2319 44.2093V41.874L48.4142 38.005C49.0251 37.2621 49.3616 36.3235 49.3616 35.3619V33.4908H52.8732V44.7232C52.8732 46.8862 54.6331 48.6461 56.7961 48.6461H59.9256C62.0888 48.6461 63.8485 46.8862 63.8485 44.7232V41.9946H67.1321C68.7132 41.9946 69.9996 40.7083 69.9996 39.1271V18.1747C70 16.5936 68.7137 15.3073 67.1325 15.3073ZM2.86752 39.9453C2.41638 39.9453 2.0494 39.5782 2.0494 39.1272V18.1747C2.0494 17.7236 2.41638 17.3567 2.86752 17.3567H6.15107V39.9453H2.86752ZM43.6603 18.8759C44.7189 18.8759 45.5799 19.737 45.5799 20.7955V24.6105C45.5799 25.1515 45.3504 25.6606 44.9576 26.022H42.3629C41.9701 25.6606 41.7405 25.1515 41.7405 24.6105V20.7955C41.7405 19.737 42.6017 18.8759 43.6603 18.8759ZM35.8519 19.2763C35.8519 18.2179 36.7131 17.3567 37.7715 17.3567C38.83 17.3567 39.6911 18.2179 39.6911 19.2763V24.6105C39.6911 25.1515 39.4616 25.6606 39.0688 26.022H37.4039C37.1211 26.022 36.8456 26.0541 36.5803 26.1131C36.1241 25.753 35.8518 25.2048 35.8518 24.6105V19.2763H35.8519ZM29.9632 20.4969C29.9632 19.4385 30.8243 18.5773 31.8828 18.5773C32.9412 18.5773 33.8025 19.4385 33.8025 20.4969V24.6104C33.8025 25.6689 32.9414 26.5301 31.8828 26.5301C30.8242 26.5301 29.9632 25.6689 29.9632 24.6104V20.4969ZM24.0744 21.322C24.0744 20.2636 24.9356 19.4024 25.994 19.4024C27.0525 19.4024 27.9137 20.2636 27.9137 21.322V24.6105C27.9137 25.6691 27.0525 26.5302 25.994 26.5302C24.9356 26.5302 24.0744 25.6691 24.0744 24.6105V21.322ZM17.1266 25.8605H22.2279C22.753 27.4383 24.2424 28.5795 25.9942 28.5795C27.1612 28.5795 28.2122 28.0729 28.939 27.2684C29.6659 28.0728 30.716 28.5795 31.8829 28.5795C32.7282 28.5795 33.5107 28.3113 34.155 27.8591C33.8095 28.4307 33.6103 29.1003 33.6103 29.8157C33.6103 30.3972 33.7421 30.9485 33.977 31.4414H17.1266V25.8605ZM49.362 31.4416V29.1692C49.362 27.8117 48.498 26.6522 47.291 26.2116C47.3416 26.097 47.3865 25.9798 47.4261 25.8605H52.8736V31.4416H49.362ZM67.9506 39.1272C67.9506 39.5784 67.5836 39.9453 67.1325 39.9453H63.8489V36.9841C63.8489 36.418 63.3901 35.9594 62.8242 35.9594C62.2583 35.9594 61.7995 36.418 61.7995 36.9841V44.7233C61.7995 45.7565 60.959 46.5969 59.926 46.5969H56.7965C55.7634 46.5969 54.923 45.7565 54.923 44.7233V12.5787C54.923 11.5456 55.7635 10.705 56.7965 10.705H59.926C60.9591 10.705 61.7995 11.5456 61.7995 12.5787V32.6171C61.7995 33.1831 62.2583 33.6418 62.8242 33.6418C63.3901 33.6418 63.8489 33.1831 63.8489 32.6171V17.3567H67.1325C67.5836 17.3567 67.9506 17.7237 67.9506 18.1747V39.1272Z" fill="white"/>
<path d="M67.1325 15.3073H63.8489V12.5787C63.8489 10.4155 62.089 8.65564 59.926 8.65564H56.7965C54.6333 8.65564 52.8736 10.4155 52.8736 12.5787V23.8111H47.6294V20.7955C47.6294 18.6068 45.8489 16.8265 43.6604 16.8265C42.8005 16.8265 42.0045 17.1023 41.3542 17.5689C40.7148 16.2327 39.3494 15.3073 37.7718 15.3073C36.2804 15.3073 34.9788 16.1342 34.3008 17.3536C33.6308 16.837 32.7927 16.5281 31.8831 16.5281C30.5026 16.5281 29.2857 17.2373 28.5745 18.3098C27.88 17.7141 26.9789 17.3532 25.9945 17.3532C23.8058 17.3532 22.0255 19.1335 22.0255 21.3222V23.8114H17.1268V20.9187C17.1268 20.3527 16.668 19.894 16.1021 19.894C15.5362 19.894 15.0774 20.3527 15.0774 20.9187V44.7234C15.0774 45.7566 14.2369 46.597 13.2039 46.597H10.074C9.04086 46.597 8.20047 45.7566 8.20047 44.7234V12.5787C8.20047 11.5456 9.041 10.705 10.074 10.705H13.2035C14.2366 10.705 15.077 11.5456 15.077 12.5787V16.5516C15.077 17.1176 15.5358 17.5763 16.1017 17.5763C16.6676 17.5763 17.1264 17.1176 17.1264 16.5516V12.5787C17.1264 10.4155 15.3665 8.65564 13.2035 8.65564H10.074C7.91082 8.65564 6.15107 10.4155 6.15107 12.5787V15.3073H2.86752C1.28634 15.3073 0 16.5936 0 18.1747V39.1272C0 40.7084 1.28634 41.9947 2.86752 41.9947H6.15107V44.7233C6.15107 46.8864 7.91096 48.6463 10.074 48.6463H13.2035C15.3667 48.6463 17.1264 46.8864 17.1264 44.7233V33.491H20.638V35.3621C20.638 36.3236 20.9744 37.2623 21.5854 38.0051L24.7677 41.8741V60.3197C24.7677 60.8857 25.2265 61.3444 25.7924 61.3444C26.3583 61.3444 26.8171 60.8857 26.8171 60.3197V41.5068C26.8171 41.2694 26.7346 41.0393 26.5837 40.8558L23.1681 36.703C22.8581 36.3262 22.6873 35.85 22.6873 35.3621V33.491L42.0661 33.6094C42.632 33.6094 43.0908 33.1508 43.0908 32.5847C43.0908 32.0187 42.632 31.56 42.0661 31.56H37.4037C36.4419 31.56 35.6593 30.7774 35.6593 29.8157C35.6593 28.8538 36.4419 28.0712 37.4037 28.0712H46.2144C46.8198 28.0712 47.3123 28.5637 47.3123 29.169V35.3619C47.3123 35.8498 47.1415 36.3262 46.8315 36.7029L43.4159 40.8557C43.265 41.0392 43.1825 41.2691 43.1825 41.5067V44.2093C43.1825 44.7754 43.6413 45.234 44.2072 45.234C44.7731 45.234 45.2319 44.7754 45.2319 44.2093V41.874L48.4142 38.005C49.0251 37.2621 49.3616 36.3235 49.3616 35.3619V33.4908H52.8732V44.7232C52.8732 46.8862 54.6331 48.6461 56.7961 48.6461H59.9256C62.0888 48.6461 63.8485 46.8862 63.8485 44.7232V41.9946H67.1321C68.7132 41.9946 69.9996 40.7083 69.9996 39.1271V18.1747C70 16.5936 68.7137 15.3073 67.1325 15.3073ZM2.86752 39.9453C2.41638 39.9453 2.0494 39.5782 2.0494 39.1272V18.1747C2.0494 17.7236 2.41638 17.3567 2.86752 17.3567H6.15107V39.9453H2.86752ZM43.6603 18.8759C44.7189 18.8759 45.5799 19.737 45.5799 20.7955V24.6105C45.5799 25.1515 45.3504 25.6606 44.9576 26.022H42.3629C41.9701 25.6606 41.7405 25.1515 41.7405 24.6105V20.7955C41.7405 19.737 42.6017 18.8759 43.6603 18.8759ZM35.8519 19.2763C35.8519 18.2179 36.7131 17.3567 37.7715 17.3567C38.83 17.3567 39.6911 18.2179 39.6911 19.2763V24.6105C39.6911 25.1515 39.4616 25.6606 39.0688 26.022H37.4039C37.1211 26.022 36.8456 26.0541 36.5803 26.1131C36.1241 25.753 35.8518 25.2048 35.8518 24.6105V19.2763H35.8519ZM29.9632 20.4969C29.9632 19.4385 30.8243 18.5773 31.8828 18.5773C32.9412 18.5773 33.8025 19.4385 33.8025 20.4969V24.6104C33.8025 25.6689 32.9414 26.5301 31.8828 26.5301C30.8242 26.5301 29.9632 25.6689 29.9632 24.6104V20.4969ZM24.0744 21.322C24.0744 20.2636 24.9356 19.4024 25.994 19.4024C27.0525 19.4024 27.9137 20.2636 27.9137 21.322V24.6105C27.9137 25.6691 27.0525 26.5302 25.994 26.5302C24.9356 26.5302 24.0744 25.6691 24.0744 24.6105V21.322ZM17.1266 25.8605H22.2279C22.753 27.4383 24.2424 28.5795 25.9942 28.5795C27.1612 28.5795 28.2122 28.0729 28.939 27.2684C29.6659 28.0728 30.716 28.5795 31.8829 28.5795C32.7282 28.5795 33.5107 28.3113 34.155 27.8591C33.8095 28.4307 33.6103 29.1003 33.6103 29.8157C33.6103 30.3972 33.7421 30.9485 33.977 31.4414H17.1266V25.8605ZM49.362 31.4416V29.1692C49.362 27.8117 48.498 26.6522 47.291 26.2116C47.3416 26.097 47.3865 25.9798 47.4261 25.8605H52.8736V31.4416H49.362ZM67.9506 39.1272C67.9506 39.5784 67.5836 39.9453 67.1325 39.9453H63.8489V36.9841C63.8489 36.418 63.3901 35.9594 62.8242 35.9594C62.2583 35.9594 61.7995 36.418 61.7995 36.9841V44.7233C61.7995 45.7565 60.959 46.5969 59.926 46.5969H56.7965C55.7634 46.5969 54.923 45.7565 54.923 44.7233V12.5787C54.923 11.5456 55.7635 10.705 56.7965 10.705H59.926C60.9591 10.705 61.7995 11.5456 61.7995 12.5787V32.6171C61.7995 33.1831 62.2583 33.6418 62.8242 33.6418C63.3901 33.6418 63.8489 33.1831 63.8489 32.6171V17.3567H67.1325C67.5836 17.3567 67.9506 17.7237 67.9506 18.1747V39.1272Z" fill="url(#paint4_linear)"/>
<path d="M44.2073 47.5516C43.6414 47.5516 43.1826 48.0103 43.1826 48.5763V60.3195C43.1826 60.8856 43.6414 61.3443 44.2073 61.3443C44.7732 61.3443 45.232 60.8856 45.232 60.3195V48.5763C45.232 48.0103 44.7734 47.5516 44.2073 47.5516Z" fill="white"/>
<path d="M44.2073 47.5516C43.6414 47.5516 43.1826 48.0103 43.1826 48.5763V60.3195C43.1826 60.8856 43.6414 61.3443 44.2073 61.3443C44.7732 61.3443 45.232 60.8856 45.232 60.3195V48.5763C45.232 48.0103 44.7734 47.5516 44.2073 47.5516Z" fill="url(#paint5_linear)"/>
</g>
<defs>
<linearGradient id="paint0_linear" x1="31.2858" y1="11.9258" x2="31.0258" y2="27.5505" gradientUnits="userSpaceOnUse">
<stop offset="0.411458" stop-color="#018F4B"/>
<stop offset="1" stop-color="#03AC79"/>
</linearGradient>
<linearGradient id="paint1_linear" x1="37.1205" y1="9.54369" x2="36.7759" y2="27.7725" gradientUnits="userSpaceOnUse">
<stop offset="0.411458" stop-color="#018F4B"/>
<stop offset="1" stop-color="#03AC79"/>
</linearGradient>
<linearGradient id="paint2_linear" x1="43.0626" y1="12.3382" x2="42.8025" y2="27.963" gradientUnits="userSpaceOnUse">
<stop offset="0.411458" stop-color="#018F4B"/>
<stop offset="1" stop-color="#03AC79"/>
</linearGradient>
<linearGradient id="paint3_linear" x1="25.3966" y1="13.215" x2="25.1776" y2="27.5513" gradientUnits="userSpaceOnUse">
<stop offset="0.411458" stop-color="#018F4B"/>
<stop offset="1" stop-color="#03AC79"/>
</linearGradient>
<linearGradient id="paint4_linear" x1="39.6383" y1="-20.9818" x2="39.2109" y2="61.3436" gradientUnits="userSpaceOnUse">
<stop offset="0.411458" stop-color="#018F4B"/>
<stop offset="1" stop-color="#03AC79"/>
</linearGradient>
<linearGradient id="paint5_linear" x1="44.3431" y1="39.7933" x2="43.3448" y2="61.2983" gradientUnits="userSpaceOnUse">
<stop offset="0.411458" stop-color="#018F4B"/>
<stop offset="1" stop-color="#03AC79"/>
</linearGradient>
<clipPath id="clip0">
<rect width="70" height="70" fill="white"/>
</clipPath>
</defs>
</svg>
