<svg width="70" height="70" viewBox="0 0 70 70" fill="none" xmlns="http://www.w3.org/2000/svg">
<g clip-path="url(#clip0)">
<path d="M29.7306 7.61629H19.3638V2.71936C19.3638 1.78393 20.1221 1.02563 21.0575 1.02563H28.037C28.9724 1.02563 29.7306 1.78393 29.7306 2.71936V7.61629Z" fill="#00CE8A"/>
<path d="M29.7301 2.71895V7.6156H26.9946V2.71895C26.9946 1.78339 26.2368 1.02563 25.3013 1.02563H28.0368C28.9724 1.02563 29.7301 1.78339 29.7301 2.71895Z" fill="#07CD56"/>
<path d="M33.638 68.9743H15.4564C13.9644 68.9743 12.7549 67.7647 12.7549 66.2728V10.318C12.7549 8.82598 13.9644 7.61646 15.4564 7.61646H33.638C35.13 7.61646 36.3395 8.82598 36.3395 10.318V66.2728C36.3395 67.7647 35.13 68.9743 33.638 68.9743Z" fill="#00CE8A"/>
<path d="M36.3394 10.3185V66.273C36.3394 67.7652 35.1302 68.9744 33.638 68.9744H30.9312C32.4234 68.9744 33.6325 67.7652 33.6325 66.273V10.3185C33.6325 8.82621 32.4234 7.61572 30.9312 7.61572H33.638C35.1302 7.61572 36.3394 8.82621 36.3394 10.3185Z" fill="#6ED5A1"/>
<path d="M43.66 68.9742C51.1632 68.9742 57.2457 62.8917 57.2457 55.3885C57.2457 47.8853 51.1632 41.8027 43.66 41.8027C36.1568 41.8027 30.0742 47.8853 30.0742 55.3885C30.0742 62.8917 36.1568 68.9742 43.66 68.9742Z" fill="#00B277"/>
<path d="M57.2459 55.388C57.2459 62.8916 51.1634 68.9741 43.6597 68.9741C41.8693 68.9741 40.1609 68.6281 38.5962 67.9975C39.358 68.1302 40.1404 68.2 40.9406 68.2C48.4442 68.2 54.5267 62.1174 54.5267 54.6152C54.5267 48.902 50.9992 44.0121 46.0041 42.0056C52.3903 43.1163 57.2459 48.6859 57.2459 55.388Z" fill="white"/>
<path d="M57.2459 55.388C57.2459 62.8916 51.1634 68.9741 43.6597 68.9741C41.8693 68.9741 40.1609 68.6281 38.5962 67.9975C39.358 68.1302 40.1404 68.2 40.9406 68.2C48.4442 68.2 54.5267 62.1174 54.5267 54.6152C54.5267 48.902 50.9992 44.0121 46.0041 42.0056C52.3903 43.1163 57.2459 48.6859 57.2459 55.388Z" fill="url(#paint0_linear)"/>
<path d="M43.4809 46.3019L38.7632 56.079C38.5984 56.4206 38.8472 56.8168 39.2263 56.8168H42.5435C42.8553 56.8168 43.0954 57.092 43.053 57.401L42.1238 64.1809C42.0479 64.7349 42.7858 64.995 43.074 64.5159L48.5339 55.4385C48.7227 55.1247 48.5324 54.7199 48.1704 54.6649L44.8954 54.1677C44.644 54.1295 44.4582 53.9134 44.4582 53.6593V46.5253C44.4585 45.9786 43.7185 45.8095 43.4809 46.3019Z" fill="white"/>
<path d="M20.6816 35.1809C20.1151 35.1809 19.6558 35.6402 19.6558 36.2067V39.4945C19.6558 40.061 20.1151 40.5203 20.6816 40.5203H28.4841C29.0506 40.5203 29.5099 40.061 29.5099 39.4945V36.2067C29.5099 35.6402 29.0506 35.1809 28.4841 35.1809C27.9176 35.1809 27.4583 35.6402 27.4583 36.2067V38.4686H25.6088V36.4493C25.6088 35.8827 25.1495 35.4234 24.5829 35.4234C24.0164 35.4234 23.5571 35.8827 23.5571 36.4493V38.4686H21.7074V36.2067C21.7074 35.6402 21.2481 35.1809 20.6816 35.1809Z" fill="white"/>
<path d="M20.6816 35.1809C20.1151 35.1809 19.6558 35.6402 19.6558 36.2067V39.4945C19.6558 40.061 20.1151 40.5203 20.6816 40.5203H28.4841C29.0506 40.5203 29.5099 40.061 29.5099 39.4945V36.2067C29.5099 35.6402 29.0506 35.1809 28.4841 35.1809C27.9176 35.1809 27.4583 35.6402 27.4583 36.2067V38.4686H25.6088V36.4493C25.6088 35.8827 25.1495 35.4234 24.5829 35.4234C24.0164 35.4234 23.5571 35.8827 23.5571 36.4493V38.4686H21.7074V36.2067C21.7074 35.6402 21.2481 35.1809 20.6816 35.1809Z" fill="url(#paint1_linear)"/>
<path d="M24.5473 32.5753C27.2839 32.5753 29.5104 30.3489 29.5104 27.6122C29.5104 26.5173 29.1502 25.5341 28.4687 24.7689C28.3349 24.6188 28.1881 24.4766 28.0322 24.3458C27.5979 23.9817 26.9511 24.0386 26.587 24.4726C26.2229 24.9067 26.2797 25.5537 26.7138 25.9178C26.794 25.985 26.8691 26.0577 26.9366 26.1336C27.2829 26.5225 27.4586 27.0199 27.4586 27.6122C27.4586 29.2176 26.1525 30.5237 24.5471 30.5237C22.9417 30.5237 21.6357 29.2176 21.6357 27.6122C21.6357 27.0286 21.8073 26.466 22.1323 25.9851C22.4495 25.5157 22.3261 24.878 21.8566 24.5608C21.3871 24.2435 20.7495 24.367 20.4323 24.8366C19.8772 25.6579 19.584 26.6177 19.584 27.6122C19.5841 30.3489 21.8106 32.5753 24.5473 32.5753Z" fill="white"/>
<path d="M24.5473 32.5753C27.2839 32.5753 29.5104 30.3489 29.5104 27.6122C29.5104 26.5173 29.1502 25.5341 28.4687 24.7689C28.3349 24.6188 28.1881 24.4766 28.0322 24.3458C27.5979 23.9817 26.9511 24.0386 26.587 24.4726C26.2229 24.9067 26.2797 25.5537 26.7138 25.9178C26.794 25.985 26.8691 26.0577 26.9366 26.1336C27.2829 26.5225 27.4586 27.0199 27.4586 27.6122C27.4586 29.2176 26.1525 30.5237 24.5471 30.5237C22.9417 30.5237 21.6357 29.2176 21.6357 27.6122C21.6357 27.0286 21.8073 26.466 22.1323 25.9851C22.4495 25.5157 22.3261 24.878 21.8566 24.5608C21.3871 24.2435 20.7495 24.367 20.4323 24.8366C19.8772 25.6579 19.584 26.6177 19.584 27.6122C19.5841 30.3489 21.8106 32.5753 24.5473 32.5753Z" fill="url(#paint2_linear)"/>
<path d="M24.5471 21.5C27.2838 21.5 29.5102 19.2735 29.5102 16.5369C29.5102 13.8002 27.2838 11.5737 24.5471 11.5737C21.8105 11.5737 19.584 13.8002 19.584 16.5369C19.584 19.2735 21.8105 21.5 24.5471 21.5ZM24.5471 13.6255C26.1525 13.6255 27.4586 14.9316 27.4586 16.537C27.4586 18.1424 26.1525 19.4484 24.5471 19.4484C22.9418 19.4484 21.6357 18.1424 21.6357 16.537C21.6357 14.9316 22.9418 13.6255 24.5471 13.6255Z" fill="white"/>
<path d="M24.5471 21.5C27.2838 21.5 29.5102 19.2735 29.5102 16.5369C29.5102 13.8002 27.2838 11.5737 24.5471 11.5737C21.8105 11.5737 19.584 13.8002 19.584 16.5369C19.584 19.2735 21.8105 21.5 24.5471 21.5ZM24.5471 13.6255C26.1525 13.6255 27.4586 14.9316 27.4586 16.537C27.4586 18.1424 26.1525 19.4484 24.5471 19.4484C22.9418 19.4484 21.6357 18.1424 21.6357 16.537C21.6357 14.9316 22.9418 13.6255 24.5471 13.6255Z" fill="url(#paint3_linear)"/>
<path d="M57.3469 50.2631C57.1482 49.7325 56.5571 49.4636 56.0264 49.6623C55.4958 49.8611 55.2269 50.4524 55.4256 50.9829C55.9526 52.3893 56.2198 53.8715 56.2198 55.3884C56.2198 62.3139 50.5855 67.9483 43.6598 67.9483C36.7342 67.9483 31.0999 62.314 31.0999 55.3884C31.0999 48.4628 36.7342 42.8285 43.6598 42.8285C47.3374 42.8285 50.8185 44.4332 53.2106 47.2312C53.5788 47.662 54.2264 47.7126 54.6569 47.3444C55.0875 46.9762 55.1383 46.3286 54.77 45.8981C51.9876 42.6434 47.938 40.7768 43.6597 40.7768C41.4072 40.7768 39.2724 41.2895 37.3652 42.2037V10.3179C37.3652 8.26263 35.6931 6.59051 33.6378 6.59051H30.7563V2.71942C30.7565 1.21992 29.5364 0 28.0369 0H21.0574C19.5579 0 18.338 1.21992 18.338 2.71942V6.59038H15.4565C13.4013 6.59038 11.7291 8.26249 11.7291 10.3177V31.4148C11.7291 31.9813 12.1884 32.4406 12.755 32.4406C13.3215 32.4406 13.7808 31.9813 13.7808 31.4148V10.3179C13.7808 9.39392 14.5325 8.64218 15.4565 8.64218H33.638C34.5619 8.64218 35.3136 9.39392 35.3136 10.3179V43.4023C31.5291 46.0455 29.0483 50.4324 29.0483 55.3885C29.0483 60.2258 31.4116 64.5208 35.0438 67.1817C34.7449 67.6425 34.2269 67.9486 33.6378 67.9486H15.4563C14.5324 67.9486 13.7807 67.1969 13.7807 66.2729V36.1469C13.7807 35.5803 13.3214 35.121 12.7548 35.121C12.1883 35.121 11.729 35.5803 11.729 36.1469V66.2727C11.729 68.3279 13.4011 70 15.4563 70H33.638C34.9565 70 36.115 69.3104 36.7777 68.2744C38.8298 69.3748 41.1731 69.9999 43.6598 69.9999C51.7166 69.9999 58.2714 63.4452 58.2714 55.3883C58.2713 53.6248 57.9603 51.9004 57.3469 50.2631ZM28.7048 6.59051H20.3897V2.71942C20.3897 2.35121 20.6892 2.05167 21.0574 2.05167H28.0369C28.4051 2.05167 28.7048 2.35121 28.7048 2.71942V6.59051Z" fill="white"/>
<path d="M57.3469 50.2631C57.1482 49.7325 56.5571 49.4636 56.0264 49.6623C55.4958 49.8611 55.2269 50.4524 55.4256 50.9829C55.9526 52.3893 56.2198 53.8715 56.2198 55.3884C56.2198 62.3139 50.5855 67.9483 43.6598 67.9483C36.7342 67.9483 31.0999 62.314 31.0999 55.3884C31.0999 48.4628 36.7342 42.8285 43.6598 42.8285C47.3374 42.8285 50.8185 44.4332 53.2106 47.2312C53.5788 47.662 54.2264 47.7126 54.6569 47.3444C55.0875 46.9762 55.1383 46.3286 54.77 45.8981C51.9876 42.6434 47.938 40.7768 43.6597 40.7768C41.4072 40.7768 39.2724 41.2895 37.3652 42.2037V10.3179C37.3652 8.26263 35.6931 6.59051 33.6378 6.59051H30.7563V2.71942C30.7565 1.21992 29.5364 0 28.0369 0H21.0574C19.5579 0 18.338 1.21992 18.338 2.71942V6.59038H15.4565C13.4013 6.59038 11.7291 8.26249 11.7291 10.3177V31.4148C11.7291 31.9813 12.1884 32.4406 12.755 32.4406C13.3215 32.4406 13.7808 31.9813 13.7808 31.4148V10.3179C13.7808 9.39392 14.5325 8.64218 15.4565 8.64218H33.638C34.5619 8.64218 35.3136 9.39392 35.3136 10.3179V43.4023C31.5291 46.0455 29.0483 50.4324 29.0483 55.3885C29.0483 60.2258 31.4116 64.5208 35.0438 67.1817C34.7449 67.6425 34.2269 67.9486 33.6378 67.9486H15.4563C14.5324 67.9486 13.7807 67.1969 13.7807 66.2729V36.1469C13.7807 35.5803 13.3214 35.121 12.7548 35.121C12.1883 35.121 11.729 35.5803 11.729 36.1469V66.2727C11.729 68.3279 13.4011 70 15.4563 70H33.638C34.9565 70 36.115 69.3104 36.7777 68.2744C38.8298 69.3748 41.1731 69.9999 43.6598 69.9999C51.7166 69.9999 58.2714 63.4452 58.2714 55.3883C58.2713 53.6248 57.9603 51.9004 57.3469 50.2631ZM28.7048 6.59051H20.3897V2.71942C20.3897 2.35121 20.6892 2.05167 21.0574 2.05167H28.0369C28.4051 2.05167 28.7048 2.35121 28.7048 2.71942V6.59051Z" fill="url(#paint4_linear)"/>
<path d="M42.1215 65.7034C42.2938 65.7641 42.4693 65.7933 42.6419 65.7933C43.1683 65.7933 43.6663 65.5218 43.9532 65.0447L49.4131 55.9673C49.6785 55.526 49.7062 54.9844 49.4873 54.5184C49.2683 54.0524 48.8336 53.7281 48.3245 53.6507L45.4842 53.2194V46.5254C45.4842 45.8025 44.9921 45.1851 44.2874 45.0239C43.5828 44.8627 42.8712 45.205 42.557 45.856L37.8392 55.6333C37.6075 56.1135 37.6385 56.6699 37.922 57.1214C38.2055 57.5729 38.6932 57.8426 39.2263 57.8426H41.9571L41.1076 64.0416C41.0072 64.7743 41.4241 65.4576 42.1215 65.7034ZM40.0412 55.7912L43.4325 48.7628V53.6594C43.4325 54.4266 43.983 55.067 44.7415 55.182L47.2611 55.5646L43.4782 61.8538L44.0694 57.5402C44.1297 57.0993 43.9964 56.654 43.704 56.3188C43.4116 55.9836 42.9885 55.7912 42.5435 55.7912H40.0412Z" fill="white"/>
<path d="M42.1215 65.7034C42.2938 65.7641 42.4693 65.7933 42.6419 65.7933C43.1683 65.7933 43.6663 65.5218 43.9532 65.0447L49.4131 55.9673C49.6785 55.526 49.7062 54.9844 49.4873 54.5184C49.2683 54.0524 48.8336 53.7281 48.3245 53.6507L45.4842 53.2194V46.5254C45.4842 45.8025 44.9921 45.1851 44.2874 45.0239C43.5828 44.8627 42.8712 45.205 42.557 45.856L37.8392 55.6333C37.6075 56.1135 37.6385 56.6699 37.922 57.1214C38.2055 57.5729 38.6932 57.8426 39.2263 57.8426H41.9571L41.1076 64.0416C41.0072 64.7743 41.4241 65.4576 42.1215 65.7034ZM40.0412 55.7912L43.4325 48.7628V53.6594C43.4325 54.4266 43.983 55.067 44.7415 55.182L47.2611 55.5646L43.4782 61.8538L44.0694 57.5402C44.1297 57.0993 43.9964 56.654 43.704 56.3188C43.4116 55.9836 42.9885 55.7912 42.5435 55.7912H40.0412Z" fill="url(#paint5_linear)"/>
</g>
<defs>
<linearGradient id="paint0_linear" x1="49.1569" y1="26.8358" x2="48.7366" y2="68.9707" gradientUnits="userSpaceOnUse">
<stop offset="0.411458" stop-color="#018F4B"/>
<stop offset="1" stop-color="#03AC79"/>
</linearGradient>
<linearGradient id="paint1_linear" x1="25.2358" y1="32.1775" x2="25.2047" y2="40.5203" gradientUnits="userSpaceOnUse">
<stop offset="0.411458" stop-color="#018F4B"/>
<stop offset="1" stop-color="#03AC79"/>
</linearGradient>
<linearGradient id="paint2_linear" x1="25.205" y1="19.3419" x2="25.1271" y2="32.5751" gradientUnits="userSpaceOnUse">
<stop offset="0.411458" stop-color="#018F4B"/>
<stop offset="1" stop-color="#03AC79"/>
</linearGradient>
<linearGradient id="paint3_linear" x1="25.2049" y1="5.99021" x2="25.0979" y2="21.4995" gradientUnits="userSpaceOnUse">
<stop offset="0.411458" stop-color="#018F4B"/>
<stop offset="1" stop-color="#03AC79"/>
</linearGradient>
<linearGradient id="paint4_linear" x1="38.0844" y1="-39.375" x2="36.9498" y2="69.9902" gradientUnits="userSpaceOnUse">
<stop offset="0.411458" stop-color="#018F4B"/>
<stop offset="1" stop-color="#03AC79"/>
</linearGradient>
<linearGradient id="paint5_linear" x1="44.4512" y1="33.2794" x2="44.0607" y2="65.7892" gradientUnits="userSpaceOnUse">
<stop offset="0.411458" stop-color="#018F4B"/>
<stop offset="1" stop-color="#03AC79"/>
</linearGradient>
<clipPath id="clip0">
<rect width="70" height="70" fill="white"/>
</clipPath>
</defs>
</svg>
