<svg width="80" height="80" viewBox="0 0 80 80" fill="none" xmlns="http://www.w3.org/2000/svg">
<g clip-path="url(#clip0)">
<path d="M63.4375 4.84375H54.0625H44.6875C35.642 4.84375 28.125 12.2045 28.125 21.25C28.125 29.5012 34.4039 36.3494 42.3438 37.4892V44.6875C42.3438 45.635 42.9136 46.4911 43.7903 46.8527C44.6548 47.2134 45.6689 47.02 46.3447 46.3445L54.0625 38.6267L55.033 37.6562H63.4375C72.483 37.6562 80 30.2955 80 21.25C80 12.2045 72.483 4.84375 63.4375 4.84375Z" fill="white"/>
<path d="M63.4375 37.6562C72.483 37.6562 80 30.2955 80 21.25C80 12.2045 72.483 4.84375 63.4375 4.84375H54.0625V38.6267L55.033 37.6562H63.4375Z" fill="#00B277"/>
<path d="M59.6875 58.75V68.125C59.6875 72.2031 56.3578 75.1562 52.6891 75.1562C39.1875 75.1562 26.0156 68.7734 16.2188 59.0156C6.42188 49.2578 0 36.125 0 22.6234C0 18.7453 3.15469 15.625 7.03125 15.625H16.4062C17.4156 15.625 18.3109 16.2703 18.6281 17.2266L23.3156 31.2562C23.5453 31.9437 23.4437 32.6969 23.0437 33.2984L19.0688 39.2625C20.575 42.4219 23.2406 45.875 26.3188 48.9156C29.3984 51.9547 32.8906 54.5812 36.05 56.0875L42.0141 52.1125C42.6188 51.7141 43.3687 51.6094 44.0562 51.8406L58.1187 56.5281C59.075 56.8453 59.6875 57.7406 59.6875 58.75Z" fill="white"/>
<path d="M59.6875 58.75V68.125C59.6875 72.2031 56.3578 75.1562 52.6891 75.1562C39.1875 75.1562 26.0156 68.7734 16.2188 59.0156C6.42188 49.2578 0 36.125 0 22.6234C0 18.7453 3.15469 15.625 7.03125 15.625H16.4062C17.4156 15.625 18.3109 16.2703 18.6281 17.2266L23.3156 31.2562C23.5453 31.9437 23.4437 32.6969 23.0437 33.2984L19.0688 39.2625C20.575 42.4219 23.2406 45.875 26.3188 48.9156C29.3984 51.9547 32.8906 54.5812 36.05 56.0875L42.0141 52.1125C42.6188 51.7141 43.3687 51.6094 44.0562 51.8406L58.1187 56.5281C59.075 56.8453 59.6875 57.7406 59.6875 58.75Z" fill="url(#paint0_linear)"/>
<path d="M59.6875 58.75V68.125C59.6875 72.2031 56.3578 75.1563 52.6891 75.1563C39.1875 75.1563 26.0156 68.7735 16.2188 59.0157L26.3188 48.9156C29.3984 51.9547 32.8906 54.5813 36.05 56.0875L42.0141 52.1125C42.6188 51.7141 43.3687 51.6094 44.0562 51.8406L58.1187 56.5281C59.075 56.8453 59.6875 57.7406 59.6875 58.75Z" fill="white"/>
<path d="M59.6875 58.75V68.125C59.6875 72.2031 56.3578 75.1563 52.6891 75.1563C39.1875 75.1563 26.0156 68.7735 16.2188 59.0157L26.3188 48.9156C29.3984 51.9547 32.8906 54.5813 36.05 56.0875L42.0141 52.1125C42.6188 51.7141 43.3687 51.6094 44.0562 51.8406L58.1187 56.5281C59.075 56.8453 59.6875 57.7406 59.6875 58.75Z" fill="url(#paint1_linear)"/>
<path d="M44.6873 23.5936C45.9817 23.5936 47.031 22.5442 47.031 21.2498C47.031 19.9554 45.9817 18.9061 44.6873 18.9061C43.3928 18.9061 42.3435 19.9554 42.3435 21.2498C42.3435 22.5442 43.3928 23.5936 44.6873 23.5936Z" fill="#613D5C"/>
<path d="M54.0625 23.5934C55.3569 23.5934 56.4062 22.5441 56.4062 21.2497C56.4062 19.9553 55.3569 18.9059 54.0625 18.9059C52.7681 18.9059 51.7188 19.9553 51.7188 21.2497C51.7188 22.5441 52.7681 23.5934 54.0625 23.5934Z" fill="#613D5C"/>
<path d="M56.4062 21.2497C56.4062 19.9553 55.3569 18.9059 54.0625 18.9059V23.5934C55.3569 23.5934 56.4062 22.5441 56.4062 21.2497Z" fill="#4B2746"/>
<path d="M63.4373 23.5936C64.7317 23.5936 65.781 22.5443 65.781 21.2499C65.781 19.9555 64.7317 18.9061 63.4373 18.9061C62.1428 18.9061 61.0935 19.9555 61.0935 21.2499C61.0935 22.5443 62.1428 23.5936 63.4373 23.5936Z" fill="#4B2746"/>
</g>
<defs>
<linearGradient id="paint0_linear" x1="33.7989" y1="-17.8613" x2="33.1591" y2="75.1535" gradientUnits="userSpaceOnUse">
<stop offset="0.411458" stop-color="#0CC46C"/>
<stop offset="1" stop-color="#03AC79"/>
</linearGradient>
<linearGradient id="paint1_linear" x1="40.8336" y1="34.1553" x2="40.6629" y2="75.1563" gradientUnits="userSpaceOnUse">
<stop offset="0.411458" stop-color="#018F4B"/>
<stop offset="1" stop-color="#03AC79"/>
</linearGradient>
<clipPath id="clip0">
<rect width="80" height="80" fill="white"/>
</clipPath>
</defs>
</svg>
