<svg width="70" height="70" viewBox="0 0 70 70" fill="none" xmlns="http://www.w3.org/2000/svg">
<g clip-path="url(#clip0)">
<path d="M57.8665 46.1602L31.3387 60.7266L4.81152 46.1602V17.0273L31.3387 2.46082L57.8665 17.0273V46.1602Z" fill="#00B277"/>
<path d="M4.81152 17.0365V46.1603L31.3388 60.7268L31.3548 60.7182V31.5944L4.82701 17.028L4.81152 17.0365Z" fill="#00B277"/>
<path d="M4.81152 17.0273V17.0278L31.3387 31.5942L57.8665 17.0278V17.0273L31.3387 2.46082L4.81152 17.0273Z" fill="#00B277"/>
<path d="M47.8367 11.6029L21.3511 26.1597L14.7993 22.4624L41.2849 7.90503L47.8367 11.6029Z" fill="white"/>
<path d="M21.3512 26.1597V35.3871L14.7993 31.7358V22.4624L21.3512 26.1597Z" fill="white"/>
<path d="M59.2338 46.1603V41.5006C59.2338 40.7455 58.6212 40.1334 57.8666 40.1334C57.1114 40.1334 56.4988 40.7455 56.4988 41.5006V45.3512L32.706 58.4159V32.4029L56.4988 19.3382V31.1084C56.4988 31.8635 57.1114 32.4756 57.8666 32.4756C58.6212 32.4756 59.2338 31.8635 59.2338 31.1084V17.0274C59.2338 16.5286 58.9619 16.0693 58.5245 15.8289L31.9968 1.2625C31.5871 1.03766 31.0905 1.03766 30.6803 1.2625L4.15308 15.8289C3.71568 16.0693 3.44385 16.5286 3.44385 17.0274V27.3705C3.44385 28.1256 4.05588 28.7377 4.81104 28.7377C5.5662 28.7377 6.17876 28.1256 6.17876 27.3705V19.3382L13.4318 23.3213V31.7359C13.4318 32.232 13.7004 32.6892 14.1336 32.9306L20.6854 36.5819C20.8926 36.6973 21.1217 36.755 21.3508 36.755C21.5906 36.755 21.8299 36.6919 22.0435 36.5664C22.4617 36.3208 22.7186 35.8722 22.7186 35.3878V28.4205L29.9711 32.4029V58.4159L6.17876 45.3512V38.1275C6.17876 37.3723 5.5662 36.7603 4.81104 36.7603C4.05588 36.7603 3.44385 37.3723 3.44385 38.1275V46.1603C3.44385 46.6591 3.71568 47.1184 4.15308 47.3587L30.6803 61.9252C30.8854 62.0378 31.1124 62.0939 31.3388 62.0939C31.5652 62.0939 31.7917 62.0378 31.9968 61.9252L58.5245 47.3587C58.9619 47.1184 59.2338 46.6591 59.2338 46.1603ZM41.7246 9.72413L45.0262 11.5869L21.3962 24.5747L18.7222 23.106L17.6092 22.478L41.2696 9.47365L41.7246 9.72413ZM47.9122 13.1213L55.0254 17.0274L31.3388 30.0338L24.2369 26.1341L47.9122 13.1213ZM31.3388 4.02091L38.429 7.9142L14.7536 20.9271L7.65223 17.0274L31.3388 4.02091ZM16.1667 30.9327V24.8225L17.3913 25.4954L19.9836 26.9582V33.0598L16.1667 30.9327Z" fill="white"/>
<path d="M59.2338 46.1603V41.5006C59.2338 40.7455 58.6212 40.1334 57.8666 40.1334C57.1114 40.1334 56.4988 40.7455 56.4988 41.5006V45.3512L32.706 58.4159V32.4029L56.4988 19.3382V31.1084C56.4988 31.8635 57.1114 32.4756 57.8666 32.4756C58.6212 32.4756 59.2338 31.8635 59.2338 31.1084V17.0274C59.2338 16.5286 58.9619 16.0693 58.5245 15.8289L31.9968 1.2625C31.5871 1.03766 31.0905 1.03766 30.6803 1.2625L4.15308 15.8289C3.71568 16.0693 3.44385 16.5286 3.44385 17.0274V27.3705C3.44385 28.1256 4.05588 28.7377 4.81104 28.7377C5.5662 28.7377 6.17876 28.1256 6.17876 27.3705V19.3382L13.4318 23.3213V31.7359C13.4318 32.232 13.7004 32.6892 14.1336 32.9306L20.6854 36.5819C20.8926 36.6973 21.1217 36.755 21.3508 36.755C21.5906 36.755 21.8299 36.6919 22.0435 36.5664C22.4617 36.3208 22.7186 35.8722 22.7186 35.3878V28.4205L29.9711 32.4029V58.4159L6.17876 45.3512V38.1275C6.17876 37.3723 5.5662 36.7603 4.81104 36.7603C4.05588 36.7603 3.44385 37.3723 3.44385 38.1275V46.1603C3.44385 46.6591 3.71568 47.1184 4.15308 47.3587L30.6803 61.9252C30.8854 62.0378 31.1124 62.0939 31.3388 62.0939C31.5652 62.0939 31.7917 62.0378 31.9968 61.9252L58.5245 47.3587C58.9619 47.1184 59.2338 46.6591 59.2338 46.1603ZM41.7246 9.72413L45.0262 11.5869L21.3962 24.5747L18.7222 23.106L17.6092 22.478L41.2696 9.47365L41.7246 9.72413ZM47.9122 13.1213L55.0254 17.0274L31.3388 30.0338L24.2369 26.1341L47.9122 13.1213ZM31.3388 4.02091L38.429 7.9142L14.7536 20.9271L7.65223 17.0274L31.3388 4.02091ZM16.1667 30.9327V24.8225L17.3913 25.4954L19.9836 26.9582V33.0598L16.1667 30.9327Z" fill="url(#paint0_linear)"/>
<path d="M57.8673 34.8009C57.5073 34.8009 57.1548 34.9456 56.899 35.2014C56.6448 35.4557 56.4995 35.8071 56.4995 36.1681C56.4995 36.528 56.6448 36.8805 56.899 37.1347C57.1548 37.3895 57.5062 37.5358 57.8673 37.5358C58.2267 37.5358 58.5781 37.3895 58.8339 37.1347C59.0881 36.8805 59.2345 36.528 59.2345 36.1681C59.2345 35.8087 59.0881 35.4557 58.8339 35.2014C58.5781 34.9456 58.2267 34.8009 57.8673 34.8009Z" fill="white"/>
<path d="M57.8673 34.8009C57.5073 34.8009 57.1548 34.9456 56.899 35.2014C56.6448 35.4557 56.4995 35.8071 56.4995 36.1681C56.4995 36.528 56.6448 36.8805 56.899 37.1347C57.1548 37.3895 57.5062 37.5358 57.8673 37.5358C58.2267 37.5358 58.5781 37.3895 58.8339 37.1347C59.0881 36.8805 59.2345 36.528 59.2345 36.1681C59.2345 35.8087 59.0881 35.4557 58.8339 35.2014C58.5781 34.9456 58.2267 34.8009 57.8673 34.8009Z" fill="url(#paint1_linear)"/>
<path d="M5.7787 33.6478C6.03292 33.3936 6.17925 33.0411 6.17925 32.6812C6.17925 32.3217 6.03292 31.9687 5.7787 31.7145C5.52289 31.4603 5.17148 31.314 4.81206 31.314C4.45104 31.314 4.09963 31.4603 3.84381 31.7145C3.5896 31.9687 3.44434 32.3217 3.44434 32.6812C3.44434 33.0411 3.5896 33.3936 3.84381 33.6478C4.09963 33.9025 4.45104 34.0489 4.81206 34.0489C5.17148 34.0489 5.52289 33.9025 5.7787 33.6478Z" fill="white"/>
<path d="M5.7787 33.6478C6.03292 33.3936 6.17925 33.0411 6.17925 32.6812C6.17925 32.3217 6.03292 31.9687 5.7787 31.7145C5.52289 31.4603 5.17148 31.314 4.81206 31.314C4.45104 31.314 4.09963 31.4603 3.84381 31.7145C3.5896 31.9687 3.44434 32.3217 3.44434 32.6812C3.44434 33.0411 3.5896 33.3936 3.84381 33.6478C4.09963 33.9025 4.45104 34.0489 4.81206 34.0489C5.17148 34.0489 5.52289 33.9025 5.7787 33.6478Z" fill="url(#paint2_linear)"/>
<path d="M67.9624 42.5804V21.5438C68.1701 21.6608 68.4008 21.7206 68.6326 21.7206C68.9829 21.7206 69.3328 21.5871 69.5998 21.3201C70.1339 20.786 70.1339 19.9203 69.5998 19.3862L67.5618 17.3483C67.0278 16.8147 66.162 16.8147 65.628 17.3483L63.59 19.3862C63.0559 19.9203 63.0559 20.786 63.59 21.3201C64.0338 21.7639 64.7062 21.8376 65.2274 21.5438V42.5804C64.7062 42.2861 64.0338 42.3598 63.59 42.8036C63.0559 43.3377 63.0559 44.2039 63.59 44.7375L65.628 46.7754C65.895 47.0424 66.2448 47.176 66.5946 47.176C66.945 47.176 67.2948 47.0424 67.5618 46.7754L69.5998 44.7375C70.1333 44.2039 70.1333 43.3377 69.5998 42.8036C69.156 42.3604 68.4836 42.2867 67.9624 42.5804Z" fill="white"/>
<path d="M67.9624 42.5804V21.5438C68.1701 21.6608 68.4008 21.7206 68.6326 21.7206C68.9829 21.7206 69.3328 21.5871 69.5998 21.3201C70.1339 20.786 70.1339 19.9203 69.5998 19.3862L67.5618 17.3483C67.0278 16.8147 66.162 16.8147 65.628 17.3483L63.59 19.3862C63.0559 19.9203 63.0559 20.786 63.59 21.3201C64.0338 21.7639 64.7062 21.8376 65.2274 21.5438V42.5804C64.7062 42.2861 64.0338 42.3598 63.59 42.8036C63.0559 43.3377 63.0559 44.2039 63.59 44.7375L65.628 46.7754C65.895 47.0424 66.2448 47.176 66.5946 47.176C66.945 47.176 67.2948 47.0424 67.5618 46.7754L69.5998 44.7375C70.1333 44.2039 70.1333 43.3377 69.5998 42.8036C69.156 42.3604 68.4836 42.2867 67.9624 42.5804Z" fill="url(#paint3_linear)"/>
<path d="M61.7704 51.4282L59.0339 50.5251C58.3167 50.288 57.5434 50.6779 57.3068 51.3951C57.0953 52.0349 57.3837 52.7185 57.9578 53.0267L37.9995 63.9855C37.9958 63.4013 37.6155 62.8629 37.027 62.6856C36.3039 62.4672 35.5407 62.8768 35.3228 63.5994L34.4902 66.3589C34.2723 67.082 34.6814 67.8446 35.4045 68.0625L38.1634 68.8951C38.2954 68.9352 38.4283 68.9539 38.5592 68.9539C39.1466 68.9539 39.6893 68.5725 39.8676 67.9813C40.0524 67.3682 39.7854 66.7274 39.2593 66.4139L59.074 55.5335C59.1023 56.0804 59.4585 56.5797 60.0102 56.7619C60.1522 56.8088 60.297 56.8313 60.439 56.8313C61.0131 56.8313 61.5477 56.4671 61.7373 55.8919L62.6404 53.1554C62.7542 52.8109 62.7264 52.4354 62.5635 52.1118C62.4001 51.7876 62.1149 51.542 61.7704 51.4282Z" fill="white"/>
<path d="M61.7704 51.4282L59.0339 50.5251C58.3167 50.288 57.5434 50.6779 57.3068 51.3951C57.0953 52.0349 57.3837 52.7185 57.9578 53.0267L37.9995 63.9855C37.9958 63.4013 37.6155 62.8629 37.027 62.6856C36.3039 62.4672 35.5407 62.8768 35.3228 63.5994L34.4902 66.3589C34.2723 67.082 34.6814 67.8446 35.4045 68.0625L38.1634 68.8951C38.2954 68.9352 38.4283 68.9539 38.5592 68.9539C39.1466 68.9539 39.6893 68.5725 39.8676 67.9813C40.0524 67.3682 39.7854 66.7274 39.2593 66.4139L59.074 55.5335C59.1023 56.0804 59.4585 56.5797 60.0102 56.7619C60.1522 56.8088 60.297 56.8313 60.439 56.8313C61.0131 56.8313 61.5477 56.4671 61.7373 55.8919L62.6404 53.1554C62.7542 52.8109 62.7264 52.4354 62.5635 52.1118C62.4001 51.7876 62.1149 51.542 61.7704 51.4282Z" fill="url(#paint4_linear)"/>
<path d="M27.3861 63.5993C27.1677 62.8762 26.4045 62.4671 25.6819 62.685C25.0934 62.8629 24.7131 63.4012 24.7094 63.9855L4.75161 53.0266C5.32519 52.7184 5.61358 52.0348 5.40209 51.395C5.1655 50.6778 4.39165 50.2885 3.67548 50.525L0.938428 51.4281C0.930951 51.4308 0.926145 51.434 0.92027 51.4372C0.61105 51.544 0.33868 51.7603 0.168316 52.0695C-0.0207413 52.414 -0.0447739 52.8033 0.0673785 53.1494C0.0679125 53.1515 0.0679125 53.1531 0.0684465 53.1553L0.97154 55.8918C1.16166 56.467 1.69572 56.8312 2.26984 56.8312C2.4119 56.8312 2.55663 56.8088 2.69869 56.7618C3.25037 56.5797 3.60659 56.0803 3.63489 55.5334L23.4495 66.4138C22.9235 66.7279 22.6565 67.3682 22.8412 67.9813C23.0196 68.5725 23.5628 68.9538 24.1497 68.9538C24.2805 68.9538 24.4135 68.9351 24.5454 68.8951L27.2643 68.0748C27.2659 68.0742 27.2675 68.0737 27.2691 68.0731L27.3044 68.0625C27.3076 68.0619 27.3097 68.0598 27.3124 68.0587C27.6403 67.9578 27.9308 67.7362 28.1092 67.412C28.295 67.0739 28.3218 66.6915 28.216 66.3497L27.3861 63.5993Z" fill="white"/>
<path d="M27.3861 63.5993C27.1677 62.8762 26.4045 62.4671 25.6819 62.685C25.0934 62.8629 24.7131 63.4012 24.7094 63.9855L4.75161 53.0266C5.32519 52.7184 5.61358 52.0348 5.40209 51.395C5.1655 50.6778 4.39165 50.2885 3.67548 50.525L0.938428 51.4281C0.930951 51.4308 0.926145 51.434 0.92027 51.4372C0.61105 51.544 0.33868 51.7603 0.168316 52.0695C-0.0207413 52.414 -0.0447739 52.8033 0.0673785 53.1494C0.0679125 53.1515 0.0679125 53.1531 0.0684465 53.1553L0.97154 55.8918C1.16166 56.467 1.69572 56.8312 2.26984 56.8312C2.4119 56.8312 2.55663 56.8088 2.69869 56.7618C3.25037 56.5797 3.60659 56.0803 3.63489 55.5334L23.4495 66.4138C22.9235 66.7279 22.6565 67.3682 22.8412 67.9813C23.0196 68.5725 23.5628 68.9538 24.1497 68.9538C24.2805 68.9538 24.4135 68.9351 24.5454 68.8951L27.2643 68.0748C27.2659 68.0742 27.2675 68.0737 27.2691 68.0731L27.3044 68.0625C27.3076 68.0619 27.3097 68.0598 27.3124 68.0587C27.6403 67.9578 27.9308 67.7362 28.1092 67.412C28.295 67.0739 28.3218 66.6915 28.216 66.3497L27.3861 63.5993Z" fill="url(#paint5_linear)"/>
</g>
<defs>
<linearGradient id="paint0_linear" x1="35.0357" y1="-33.2187" x2="34.3169" y2="62.0902" gradientUnits="userSpaceOnUse">
<stop offset="0.411458" stop-color="#018F4B"/>
<stop offset="1" stop-color="#03AC79"/>
</linearGradient>
<linearGradient id="paint1_linear" x1="58.0482" y1="33.2625" x2="58.0187" y2="37.5357" gradientUnits="userSpaceOnUse">
<stop offset="0.411458" stop-color="#018F4B"/>
<stop offset="1" stop-color="#03AC79"/>
</linearGradient>
<linearGradient id="paint2_linear" x1="4.99302" y1="29.7756" x2="4.96355" y2="34.0487" gradientUnits="userSpaceOnUse">
<stop offset="0.411458" stop-color="#018F4B"/>
<stop offset="1" stop-color="#03AC79"/>
</linearGradient>
<linearGradient id="paint3_linear" x1="67.0462" y1="-0.0550423" x2="65.6017" y2="47.1326" gradientUnits="userSpaceOnUse">
<stop offset="0.411458" stop-color="#018F4B"/>
<stop offset="1" stop-color="#03AC79"/>
</linearGradient>
<linearGradient id="paint4_linear" x1="50.4443" y1="40.0505" x2="50.3139" y2="68.9538" gradientUnits="userSpaceOnUse">
<stop offset="0.411458" stop-color="#018F4B"/>
<stop offset="1" stop-color="#03AC79"/>
</linearGradient>
<linearGradient id="paint5_linear" x1="16.0127" y1="40.0507" x2="15.8823" y2="68.9537" gradientUnits="userSpaceOnUse">
<stop offset="0.411458" stop-color="#018F4B"/>
<stop offset="1" stop-color="#03AC79"/>
</linearGradient>
<clipPath id="clip0">
<rect width="70" height="70" fill="white"/>
</clipPath>
</defs>
</svg>
