<svg width="80" height="80" viewBox="0 0 80 80" fill="none" xmlns="http://www.w3.org/2000/svg">
<g clip-path="url(#clip0)">
<path d="M35.952 14.7197C35.5812 14.7197 35.2155 14.5495 34.9787 14.2278C33.8809 12.7362 31.9275 11.0251 28.8536 11.3534C25.2347 11.7389 22.5472 10.5872 20.9297 9.55327C20.368 9.1942 20.2037 8.4478 20.5627 7.88608C20.9216 7.32421 21.6683 7.16014 22.2298 7.51905C23.5219 8.34467 25.6755 9.26452 28.598 8.95264C33.0336 8.4817 35.7178 11.1586 36.9233 12.7969C37.3184 13.3337 37.2034 14.0895 36.6664 14.4847C36.4509 14.6431 36.2005 14.7197 35.952 14.7197Z" fill="#05B77C"/>
<path d="M23.3134 21.1301C23.0979 21.1301 22.8801 21.0726 22.6829 20.9515C22.1147 20.6028 21.937 19.8595 22.2857 19.2912C23.8331 16.7704 26.6687 15.0379 30.4862 14.2811C33.2697 13.7294 35.6051 13.8804 35.7029 13.8873C36.3681 13.9329 36.8703 14.509 36.8246 15.1742C36.779 15.8389 36.2015 16.3373 35.5392 16.2961C35.4554 16.2904 27.2586 15.8045 24.3432 20.5542C24.1154 20.9256 23.719 21.1301 23.3134 21.1301Z" fill="#05B77C"/>
<path d="M41.5096 67.387C61.3348 67.387 72.297 38.3073 40.9899 15.8475C40.2112 15.2888 39.7487 14.3892 39.7592 13.4308C39.7678 12.6388 40.0187 11.8698 40.4729 11.2209C41.9385 9.12797 44.0482 5.54766 45.3134 2.66391C45.6163 1.97328 45.1828 1.23047 44.3723 1.23047C42.4918 1.23063 42.4918 0 40.6113 0C38.7309 0 38.7309 1.23063 36.8503 1.23063C35.2478 1.23063 34.5903 -0.148125 33.8112 0.854687C31.539 3.77906 39.3215 14.063 39.3215 14.063C4.95057 36.6583 16.0329 67.3872 36.326 67.3872H41.5096V67.387Z" fill="#00B277"/>
<path d="M49.3031 14.0628C49.3031 14.0628 57.2011 3.81219 54.93 0.871719C54.1559 -0.130469 53.4959 1.23062 51.8951 1.23062C50.0144 1.23047 50.0144 0 48.1336 0C46.2529 0 46.2529 1.23047 44.3723 1.23047C44.2797 1.23047 44.1951 1.22531 44.1112 1.21953C43.3556 4.45859 39.9504 9.50469 38.0019 12.2066C38.7692 13.3327 39.3217 14.0627 39.3217 14.0627C38.8633 14.3641 38.4145 14.6672 37.9722 14.9714C70.8114 37.5431 59.8233 67.3869 39.7394 67.3869H52.4203C72.7748 67.387 83.7886 36.7333 49.3031 14.0628Z" fill="white"/>
<path d="M49.3031 14.0628C49.3031 14.0628 57.2011 3.81219 54.93 0.871719C54.1559 -0.130469 53.4959 1.23062 51.8951 1.23062C50.0144 1.23047 50.0144 0 48.1336 0C46.2529 0 46.2529 1.23047 44.3723 1.23047C44.2797 1.23047 44.1951 1.22531 44.1112 1.21953C43.3556 4.45859 39.9504 9.50469 38.0019 12.2066C38.7692 13.3327 39.3217 14.0627 39.3217 14.0627C38.8633 14.3641 38.4145 14.6672 37.9722 14.9714C70.8114 37.5431 59.8233 67.3869 39.7394 67.3869H52.4203C72.7748 67.387 83.7886 36.7333 49.3031 14.0628Z" fill="url(#paint0_linear)"/>
<path d="M50.7716 17.7088C46.1824 18.8678 41.6485 18.8678 37.0585 17.7088C35.461 17.3053 34.5554 15.5089 35.1302 13.876C35.1366 13.8577 35.143 13.8394 35.1494 13.8211C35.6315 12.4521 36.9985 11.6838 38.3383 12.0202C42.0961 12.9636 45.7327 12.9639 49.4916 12.0202C50.8315 11.6838 52.1985 12.4521 52.6805 13.8211C52.6869 13.8394 52.6933 13.8577 52.6997 13.876C53.2747 15.5089 52.3691 17.3053 50.7716 17.7088Z" fill="#00CE8A"/>
<path d="M7.62158 72.6593L25.0991 79.1646C26.5835 79.7171 28.1545 80 29.7385 80H47.7503C50.271 80 52.7397 79.2838 54.8689 77.9346L77.4216 63.6439C78.9095 62.3227 79.1853 60.1024 78.0659 58.4572C76.8411 56.6572 74.815 56.3444 72.5855 57.3986L50.6283 67.0664L50.6542 63.5041C50.3635 60.58 48.112 58.2333 45.2027 57.8217L31.8314 56.2822C28.7469 55.8458 27.2056 54.8121 24.5166 53.2391C20.8455 51.0916 16.6689 49.9597 12.4158 49.9597H7.62158V72.6593Z" fill="#FFDDCE"/>
<path d="M24.0377 75.6983C25.5981 76.2791 27.2499 76.5766 28.9149 76.5766H47.8502C49.8661 76.5766 51.8499 76.1397 53.6694 75.3067L66.9099 66.9167C68.14 66.1372 68.921 64.7803 68.881 63.3246C68.8597 62.5525 68.6238 61.7797 68.1614 61.1003C68.1614 61.1003 67.7583 60.4096 67.3441 59.7064L50.6283 67.0664L50.6542 63.5041C50.3635 60.58 48.112 58.2333 45.2027 57.8217L31.8314 56.2822C28.7469 55.8458 27.2056 54.8121 24.5166 53.2391C20.8455 51.0916 16.6689 49.9597 12.4158 49.9597H7.62158V69.588L24.0377 75.6983Z" fill="white"/>
<path d="M78.0658 58.4573C76.841 56.6573 74.8149 56.3445 72.5853 57.3987L66.5458 60.0579C66.8383 60.5209 67.071 60.8904 67.071 60.8904C68.1903 62.5356 67.9146 64.7559 66.4266 66.0771L53.2855 74.404C51.5547 75.1963 49.6677 75.612 47.75 75.612H29.7385C28.1546 75.612 26.5835 75.329 25.0991 74.7765L7.62158 68.271V72.6592L25.0991 79.1646C26.5835 79.7171 28.1546 80.0001 29.7385 80.0001H44.4544H47.7505C50.2711 80.0001 52.7399 79.2838 54.8691 77.9346L77.4217 63.644C78.9094 62.3227 79.1853 60.1023 78.0658 58.4573Z" fill="#00B277"/>
<path d="M49.0148 59.834L49.0142 59.92L49.0709 59.895C49.0524 59.8744 49.0334 59.8545 49.0148 59.834Z" fill="#F5DBCC"/>
<path d="M50.628 67.0643H36.975C36.3083 67.0643 35.7678 66.524 35.7678 65.8571C35.7678 65.1902 36.3081 64.6499 36.975 64.6499H50.6456L50.628 67.0643Z" fill="#00B277"/>
<path d="M11.3823 76.1405C11.3823 77.4086 10.3543 78.4366 9.08619 78.4366H3.54463C2.2765 78.4366 1.24854 77.4086 1.24854 76.1405V48.0255C1.24854 46.7573 2.2765 45.7294 3.54463 45.7294H9.08619C10.3543 45.7294 11.3823 46.7573 11.3823 48.0255V76.1405Z" fill="#00CE8A"/>
<path fill-rule="evenodd" clip-rule="evenodd" d="M36.6413 32.1785C34.5592 32.6655 32.5309 34.3184 32.0927 35.8854C31.4161 38.3028 32.3872 40.2782 34.8699 41.5358L35.7092 41.9607L32.1772 45.4717C28.6818 48.9465 28.6527 48.9828 29.3727 48.9828C30.0336 48.9828 30.4101 48.6756 33.4844 45.6277L36.8685 42.2728L39.4489 42.8165L36.0342 46.2119C34.189 48.045 33.4405 48.7886 33.5786 49.286C33.6728 49.6255 34.18 49.8502 35.0332 50.2285L35.2521 50.3257C37.8256 51.4723 40.589 51.4918 43.0244 50.3803C44.5147 49.7001 45.2854 49.0098 45.9908 47.7232C47.3288 45.2823 46.3826 42.7789 43.6382 41.4982L42.6947 41.0579L46.0203 37.7514C49.319 34.4717 49.3399 34.4451 48.6184 34.4451C47.9599 34.4451 47.5911 34.7425 44.7159 37.5923L41.5408 40.7397L38.9611 40.1962L42.1749 36.9996C43.738 35.4468 44.4337 34.7557 44.4389 34.2845C44.4431 33.9066 44.0029 33.6701 43.2097 33.2441C43.1424 33.2079 43.072 33.1701 42.9997 33.1311C41.1521 32.1328 38.5209 31.7386 36.6413 32.1785ZM42.1335 35.4683C42.1335 35.3988 41.6864 35.103 41.1398 34.8112C38.3199 33.3055 34.6025 34.5263 34.6025 36.958C34.6025 37.9863 35.5211 39.0598 36.8233 39.5536L37.7697 39.9123L39.9516 37.7535C41.1515 36.5661 42.1335 35.5379 42.1335 35.4683ZM43.4081 47.2941C44.3476 45.9843 43.7468 44.5172 41.8803 43.564C41.4534 43.3461 40.9812 43.1677 40.831 43.1677C40.4116 43.1677 35.7843 47.8661 35.9466 48.1269C36.0244 48.252 36.6179 48.5072 37.2653 48.6941C39.5215 49.3452 42.409 48.6873 43.4081 47.2941Z" fill="white"/>
</g>
<defs>
<linearGradient id="paint0_linear" x1="56.9757" y1="-37.9051" x2="55.5177" y2="67.3685" gradientUnits="userSpaceOnUse">
<stop offset="0.411458" stop-color="#018F4B"/>
<stop offset="1" stop-color="#03AC79"/>
</linearGradient>
<clipPath id="clip0">
<rect width="80" height="80" fill="white"/>
</clipPath>
</defs>
</svg>
