<svg width="42" height="42" viewBox="0 0 42 42" fill="none" xmlns="http://www.w3.org/2000/svg">
<path fill-rule="evenodd" clip-rule="evenodd" d="M8.61328 0H33.3867C38.1361 0 42 3.86392 42 8.61328V33.3867C42 38.1361 38.1361 42 33.3867 42H8.61328C3.86392 42 0 38.1361 0 33.3867V8.61328C0 3.86392 3.86392 0 8.61328 0Z" fill="white"/>
<path fill-rule="evenodd" clip-rule="evenodd" d="M8.61328 0H33.3867C38.1361 0 42 3.86392 42 8.61328V33.3867C42 38.1361 38.1361 42 33.3867 42H8.61328C3.86392 42 0 38.1361 0 33.3867V8.61328C0 3.86392 3.86392 0 8.61328 0Z" fill="url(#paint0_linear)"/>
<path d="M31.3479 18.7179L13.0698 8.26976C12.7546 8.08976 12.4038 8 12.053 8C12.0458 8 12.0388 8.00095 12.0318 8.00095C11.9846 8.00143 11.9376 8.00381 11.8907 8.0075C11.8695 8.00917 11.8485 8.01143 11.8273 8.01381C11.7906 8.01786 11.754 8.02298 11.7176 8.02905C11.7044 8.03131 11.6911 8.03202 11.6779 8.03452L11.6786 8.03548C11.4508 8.0775 11.2286 8.15774 11.022 8.27762C10.3894 8.64464 10 9.32071 10 10.052V30.9481C10 31.6794 10.3894 32.3555 11.022 32.7225C11.2285 32.8424 11.4507 32.9227 11.6785 32.9648L11.6779 32.9656C11.6898 32.9679 11.7018 32.9686 11.7136 32.9705C11.7527 32.9771 11.792 32.9826 11.8314 32.9868C11.8512 32.9889 11.8708 32.9911 11.8906 32.9926C11.9369 32.9963 11.9831 32.9985 12.0295 32.999C12.0374 32.9992 12.0451 33.0001 12.053 33.0001C12.4038 33.0001 12.7546 32.9104 13.0698 32.7304L31.3479 22.2821C31.9869 21.9168 32.3813 21.2373 32.3813 20.501C32.3813 20.501 32.3813 20.5006 32.3813 20.5005C32.3813 20.5005 32.3813 20.5001 32.3813 20.5C32.3813 20.5 32.3813 20.4996 32.3813 20.4995C32.3813 20.4995 32.3813 20.4992 32.3813 20.499C32.3813 19.7629 31.9869 19.0833 31.3479 18.7179ZM24.1195 16.643L22.3021 19.0271L17.6783 12.961L24.1195 16.643ZM30.4617 20.7318L17.6783 28.039L25.6824 17.5383L30.4615 20.2701C30.5443 20.3174 30.5957 20.406 30.5957 20.5008C30.5956 20.5961 30.5442 20.6846 30.4617 20.7318Z" fill="white"/>
<defs>
<linearGradient id="paint0_linear" x1="23.7831" y1="-23.625" x2="23.3305" y2="41.998" gradientUnits="userSpaceOnUse">
<stop offset="0.411458" stop-color="#0CC46C"/>
<stop offset="1" stop-color="#03AC79"/>
</linearGradient>
</defs>
</svg>
