<svg width="390" height="250" viewBox="0 0 390 250" fill="none" xmlns="http://www.w3.org/2000/svg">
<g filter="url(#filter0_d)">
<rect x="26" y="26" width="330" height="190" fill="white"/>
</g>
<rect x="46" y="38" width="290" height="166" fill="white" stroke="url(#paint0_linear)" stroke-width="2"/>
<path d="M219.973 85.7318C219.427 80.6149 215.386 76.5729 210.268 76.0272C197.435 74.6576 184.565 74.6576 171.732 76.0272C166.615 76.5733 162.573 80.6149 162.027 85.7318C160.658 98.5643 160.658 111.435 162.027 124.268C162.573 129.385 166.615 133.427 171.732 133.973C184.564 135.342 197.435 135.342 210.268 133.973C215.386 133.427 219.427 129.385 219.973 124.268C221.342 111.435 221.342 98.5648 219.973 85.7318Z" fill="url(#paint1_radial)"/>
<path d="M216.709 87.9021C216.225 83.3615 212.639 79.7749 208.098 79.2901C196.711 78.0752 185.289 78.0752 173.902 79.2901C169.361 79.7749 165.775 83.3615 165.29 87.9021C164.075 99.2894 164.075 110.711 165.29 122.097C165.775 126.638 169.361 130.225 173.902 130.709C185.289 131.925 196.711 131.925 208.097 130.709C212.638 130.225 216.225 126.638 216.709 122.097C217.925 110.711 217.925 99.2894 216.709 87.9021Z" fill="url(#paint2_linear)"/>
<path d="M161.899 123.024C161.94 123.439 161.983 123.853 162.027 124.268C162.573 129.385 166.615 133.427 171.732 133.973C184.565 135.342 197.436 135.342 210.268 133.973C215.385 133.427 219.427 129.385 219.973 124.268C220.017 123.853 220.06 123.439 220.101 123.024H161.899Z" fill="url(#paint3_linear)"/>
<path d="M219.972 124.268C220.709 117.372 221.048 110.466 220.993 103.561L207.279 89.8462C205.565 87.8902 203.063 86.6693 200.122 86.5636C194.075 86.3457 188.008 86.3567 181.959 86.5645C176.936 86.7375 173.423 90.114 172.522 95.0766C172.363 95.9528 172.268 96.8404 172.143 97.7229V112.272C172.212 112.743 172.314 113.212 172.345 113.687C172.547 116.705 173.787 119.29 175.774 121.04L189.73 134.995C196.579 135.044 203.428 134.703 210.268 133.973C215.385 133.427 219.426 129.385 219.972 124.268Z" fill="url(#paint4_linear)"/>
<path d="M219.973 124.268C219.427 129.385 215.385 133.427 210.268 133.973C203.43 134.702 196.579 135.043 189.731 134.995L175.795 121.06C177.411 122.474 179.517 123.335 181.96 123.427C188.007 123.654 194.075 123.648 200.122 123.43C205.592 123.233 209.55 119.185 209.72 113.715C209.902 107.908 209.902 102.086 209.72 96.2787C209.642 93.7555 208.757 91.5353 207.288 89.8553L220.994 103.561C221.048 110.466 220.708 117.373 219.973 124.268Z" fill="url(#paint5_linear)"/>
<path d="M198.08 98.503C196.323 96.59 193.802 95.3897 191 95.3897C185.693 95.3897 181.39 99.6927 181.39 105C181.39 107.802 182.59 110.323 184.503 112.08L206.738 134.315C207.915 134.212 209.092 134.098 210.268 133.973C215.385 133.427 219.427 129.385 219.973 124.268C220.098 123.092 220.212 121.915 220.315 120.738L198.08 98.503Z" fill="url(#paint6_linear)"/>
<path d="M220.884 111.463L202.989 93.5687C202.572 93.0208 201.914 92.6651 201.172 92.6651C199.909 92.6651 198.885 93.6887 198.885 94.9516C198.885 95.6937 199.241 96.3515 199.789 96.769L220.564 117.545C220.705 115.518 220.812 113.491 220.884 111.463Z" fill="url(#paint7_linear)"/>
<path d="M172.143 97.7229C172.268 96.8404 172.363 95.9528 172.522 95.0766C173.423 90.114 176.936 86.7375 181.959 86.5645C188.008 86.3567 194.075 86.3457 200.122 86.5636C205.59 86.7604 209.549 90.8089 209.72 96.2782C209.902 102.086 209.902 107.908 209.72 113.715C209.549 119.185 205.591 123.233 200.122 123.43C194.075 123.648 188.007 123.654 181.96 123.427C176.491 123.221 172.711 119.164 172.345 113.686C172.314 113.212 172.212 112.743 172.143 112.271C172.143 107.422 172.143 102.572 172.143 97.7229ZM191.005 120.189C193.772 120.189 196.543 120.271 199.307 120.169C203.64 120.009 206.306 117.422 206.407 113.093C206.533 107.698 206.533 102.296 206.407 96.9008C206.306 92.5722 203.639 89.9254 199.307 89.8334C193.809 89.7171 188.304 89.718 182.806 89.8334C178.507 89.9236 175.834 92.5168 175.717 96.7978C175.569 102.261 175.569 107.733 175.717 113.196C175.834 117.477 178.507 120.01 182.807 120.169C185.536 120.271 188.272 120.189 191.005 120.189Z" fill="url(#paint8_linear)"/>
<path d="M172.143 97.7229C172.268 96.8404 172.363 95.9528 172.522 95.0766C173.423 90.114 176.936 86.7375 181.959 86.5645C188.008 86.3567 194.075 86.3457 200.122 86.5636C205.59 86.7604 209.549 90.8089 209.72 96.2782C209.902 102.086 209.902 107.908 209.72 113.715C209.549 119.185 205.591 123.233 200.122 123.43C194.075 123.648 188.007 123.654 181.96 123.427C176.491 123.221 172.711 119.164 172.345 113.686C172.314 113.212 172.212 112.743 172.143 112.271C172.143 107.422 172.143 102.572 172.143 97.7229ZM191.005 120.189C193.772 120.189 196.543 120.271 199.307 120.169C203.64 120.009 206.306 117.422 206.407 113.093C206.533 107.698 206.533 102.296 206.407 96.9008C206.306 92.5722 203.639 89.9254 199.307 89.8334C193.809 89.7171 188.304 89.718 182.806 89.8334C178.507 89.9236 175.834 92.5168 175.717 96.7978C175.569 102.261 175.569 107.733 175.717 113.196C175.834 117.477 178.507 120.01 182.807 120.169C185.536 120.271 188.272 120.189 191.005 120.189Z" fill="white"/>
<path d="M190.999 95.3902C185.692 95.3902 181.389 99.6927 181.389 105C181.389 110.308 185.692 114.61 190.999 114.61C196.307 114.61 200.61 110.308 200.61 105C200.61 99.6927 196.307 95.3902 190.999 95.3902ZM190.999 111.302C187.519 111.302 184.698 108.48 184.698 105C184.698 101.52 187.519 98.6984 190.999 98.6984C194.48 98.6984 197.301 101.52 197.301 105C197.301 108.48 194.48 111.302 190.999 111.302Z" fill="white"/>
<path d="M203.457 94.9516C203.457 96.2141 202.434 97.2377 201.171 97.2377C199.909 97.2377 198.885 96.2141 198.885 94.9516C198.885 93.6887 199.909 92.6651 201.171 92.6651C202.434 92.6651 203.457 93.6887 203.457 94.9516Z" fill="white"/>
<path d="M110.363 182H112.763V165.2H98.6991V182H101.099V166.136H110.363V182ZM117.138 188H119.466V180.584C120.306 181.592 121.53 182.168 123.09 182.168C126.33 182.168 128.682 179.672 128.682 176.288C128.682 172.952 126.354 170.312 123.09 170.312C121.314 170.312 119.97 171.08 119.13 172.328L118.626 170.48H117.138V188ZM119.394 176.24C119.394 173.168 120.642 171.176 122.73 171.176C124.794 171.176 126.306 173.216 126.306 176.264C126.306 179.312 124.818 181.304 122.73 181.304C120.666 181.304 119.394 179.312 119.394 176.24ZM142.56 170.48H140.64L134.28 179.504V170.48H131.88V182H133.8L140.16 173.024V182H142.56V170.48ZM148.133 176.24C148.133 173.192 149.741 171.128 151.805 171.128C153.389 171.128 154.685 172.328 155.069 174.2H157.157C156.725 171.8 154.373 170.312 151.637 170.312C148.205 170.312 145.733 172.784 145.733 176.24C145.733 179.696 148.205 182.168 151.709 182.168C154.421 182.168 156.749 180.8 157.181 178.28H155.069C154.685 180.416 153.365 181.376 151.829 181.376C149.741 181.376 148.133 179.312 148.133 176.24ZM159.608 176.24C159.608 179.696 162.08 182.168 165.536 182.168C168.992 182.168 171.464 179.696 171.464 176.264C171.464 172.856 168.992 170.312 165.512 170.312C162.08 170.312 159.608 172.784 159.608 176.24ZM161.984 176.24C161.984 173.168 163.472 171.128 165.536 171.128C167.576 171.128 169.064 173.216 169.064 176.24C169.064 179.312 167.576 181.376 165.536 181.376C163.472 181.376 161.984 179.312 161.984 176.24ZM179.67 170.312C176.19 170.312 173.742 172.784 173.742 176.264C173.742 179.696 176.142 182.168 179.766 182.168C182.502 182.168 185.022 180.752 185.406 178.496H183.198C182.814 180.152 181.47 181.376 179.862 181.376C177.774 181.376 176.19 179.432 176.118 176.504H185.382V175.52C185.334 172.16 182.694 170.312 179.67 170.312ZM179.694 171.128C181.374 171.128 183.15 172.976 183.198 175.52H176.142C176.382 172.856 177.918 171.128 179.694 171.128ZM186.833 185.6H188.513L189.161 182H198.521L199.169 185.6H200.849V181.064H198.737V170.48H190.553L189.977 176.264C189.737 178.592 189.209 180.368 188.585 181.064H186.833V185.6ZM191.633 176.024L192.065 171.416H196.337V181.064H190.409C190.985 180.272 191.369 178.76 191.633 176.024ZM214.419 170.48H212.499L206.139 179.504V170.48H203.739V182H205.659L212.019 173.024V182H214.419V170.48ZM229.305 170.48H226.905V175.592H220.905V170.48H218.505V182H220.905V176.528H226.905V182H229.305V170.48ZM237.348 170.48C234.108 170.48 232.452 171.872 232.452 173.84C232.452 175.376 233.484 176.6 235.524 177.032L232.188 182H234.492L237.54 177.2H239.796V182H242.124V170.48H237.348ZM234.708 173.84C234.708 172.376 235.836 171.512 237.348 171.512H239.796V176.264H237.348C235.836 176.264 234.708 175.304 234.708 173.84ZM256.888 170.48H254.968L248.608 179.504V170.48H246.208V182H248.128L254.488 173.024V182H256.888V170.48ZM253.504 165.872C253.504 167.144 252.664 167.96 251.536 167.96C250.408 167.96 249.592 167.144 249.592 165.872H247.768C247.768 167.552 249.352 168.752 251.536 168.752C253.744 168.752 255.328 167.552 255.328 165.872H253.504ZM262.462 176.24C262.462 173.192 264.07 171.128 266.134 171.128C267.718 171.128 269.014 172.328 269.398 174.2H271.486C271.054 171.8 268.702 170.312 265.966 170.312C262.534 170.312 260.062 172.784 260.062 176.24C260.062 179.696 262.534 182.168 266.038 182.168C268.75 182.168 271.078 180.8 271.51 178.28H269.398C269.014 180.416 267.694 181.376 266.158 181.376C264.07 181.376 262.462 179.312 262.462 176.24ZM278.809 170.48C275.569 170.48 273.913 171.872 273.913 173.84C273.913 175.376 274.945 176.6 276.985 177.032L273.649 182H275.953L279.001 177.2H281.257V182H283.585V170.48H278.809ZM276.169 173.84C276.169 172.376 277.297 171.512 278.809 171.512H281.257V176.264H278.809C277.297 176.264 276.169 175.304 276.169 173.84Z" fill="#2F2F2F"/>
<defs>
<filter id="filter0_d" x="0" y="0" width="390" height="250" filterUnits="userSpaceOnUse" color-interpolation-filters="sRGB">
<feFlood flood-opacity="0" result="BackgroundImageFix"/>
<feColorMatrix in="SourceAlpha" type="matrix" values="0 0 0 0 0 0 0 0 0 0 0 0 0 0 0 0 0 0 127 0"/>
<feOffset dx="4" dy="4"/>
<feGaussianBlur stdDeviation="15"/>
<feColorMatrix type="matrix" values="0 0 0 0 0 0 0 0 0 0 0 0 0 0 0 0 0 0 0.2 0"/>
<feBlend mode="normal" in2="BackgroundImageFix" result="effect1_dropShadow"/>
<feBlend mode="normal" in="SourceGraphic" in2="effect1_dropShadow" result="shape"/>
</filter>
<linearGradient id="paint0_linear" x1="298.5" y1="44.5" x2="25.5" y2="215" gradientUnits="userSpaceOnUse">
<stop offset="0.0316534" stop-color="#FF1EB2"/>
<stop offset="1" stop-color="#9713FF" stop-opacity="0.86"/>
</linearGradient>
<radialGradient id="paint1_radial" cx="0" cy="0" r="1" gradientUnits="userSpaceOnUse" gradientTransform="translate(173.3 127.435) scale(66.1694)">
<stop stop-color="#FAE100"/>
<stop offset="0.0544" stop-color="#FADC04"/>
<stop offset="0.1167" stop-color="#FBCE0E"/>
<stop offset="0.1829" stop-color="#FCB720"/>
<stop offset="0.2514" stop-color="#FE9838"/>
<stop offset="0.3054" stop-color="#FF7950"/>
<stop offset="0.4922" stop-color="#FF1C74"/>
<stop offset="1" stop-color="#6C1CD1"/>
</radialGradient>
<linearGradient id="paint2_linear" x1="184.012" y1="101.069" x2="82.3652" y2="43.893" gradientUnits="userSpaceOnUse">
<stop stop-color="#A1B5D8" stop-opacity="0"/>
<stop offset="0.3094" stop-color="#90A2BD" stop-opacity="0.309804"/>
<stop offset="0.7554" stop-color="#7C8B9C" stop-opacity="0.756863"/>
<stop offset="1" stop-color="#748290"/>
</linearGradient>
<linearGradient id="paint3_linear" x1="191" y1="127.965" x2="191" y2="137.317" gradientUnits="userSpaceOnUse">
<stop stop-color="#FAE100" stop-opacity="0"/>
<stop offset="0.3068" stop-color="#FCA800" stop-opacity="0.305882"/>
<stop offset="0.6275" stop-color="#FE7300" stop-opacity="0.627451"/>
<stop offset="0.8685" stop-color="#FF5200" stop-opacity="0.866667"/>
<stop offset="1" stop-color="#FF4500"/>
</linearGradient>
<linearGradient id="paint4_linear" x1="187.586" y1="101.502" x2="172.737" y2="86.6527" gradientUnits="userSpaceOnUse">
<stop stop-color="#833AB4" stop-opacity="0"/>
<stop offset="1" stop-color="#833AB4"/>
</linearGradient>
<linearGradient id="paint5_linear" x1="202.121" y1="129.877" x2="194.71" y2="94.938" gradientUnits="userSpaceOnUse">
<stop stop-color="#833AB4" stop-opacity="0"/>
<stop offset="1" stop-color="#833AB4"/>
</linearGradient>
<linearGradient id="paint6_linear" x1="204.941" y1="118.941" x2="175.173" y2="89.1728" gradientUnits="userSpaceOnUse">
<stop stop-color="#833AB4" stop-opacity="0"/>
<stop offset="1" stop-color="#833AB4"/>
</linearGradient>
<linearGradient id="paint7_linear" x1="207.149" y1="100.929" x2="197.306" y2="91.0854" gradientUnits="userSpaceOnUse">
<stop stop-color="#833AB4" stop-opacity="0"/>
<stop offset="1" stop-color="#833AB4"/>
</linearGradient>
<linearGradient id="paint8_linear" x1="202.913" y1="93.1699" x2="178.641" y2="117.441" gradientUnits="userSpaceOnUse">
<stop stop-color="#833AB4"/>
<stop offset="0.0922" stop-color="#9C3495"/>
<stop offset="0.2927" stop-color="#DC2546"/>
<stop offset="0.392" stop-color="#FD1D1D"/>
<stop offset="0.5589" stop-color="#FC6831"/>
<stop offset="0.6887" stop-color="#FC9B40"/>
<stop offset="0.7521" stop-color="#FCAF45"/>
<stop offset="0.7806" stop-color="#FDB750"/>
<stop offset="0.8656" stop-color="#FECB6A"/>
<stop offset="0.9415" stop-color="#FFD87A"/>
<stop offset="1" stop-color="#FFDC80"/>
</linearGradient>
</defs>
</svg>
