<svg width="150" height="127" viewBox="0 0 150 127" fill="none" xmlns="http://www.w3.org/2000/svg">
<path d="M69.1802 22.0106C69.1747 22.0052 69.1693 21.9997 69.1638 21.9888C69.1148 21.9235 69.0658 21.8581 69.0113 21.7873C68.9296 21.6838 68.8479 21.5803 68.7662 21.4714C68.5102 21.15 68.2542 20.8395 67.9873 20.5345C61.1461 12.7292 46.6793 5.34878 44.8765 0C44.7403 7.76172 64.0057 16.6673 67.143 25.8724C67.1539 25.9051 67.1648 25.9378 67.1757 25.9704C67.2139 26.0794 67.2465 26.1883 67.2738 26.2972C60.7975 20.0824 50.0564 14.287 48.6075 9.97313C48.4877 16.9505 66.1027 24.9791 68.4285 33.2637L68.4448 33.2256C68.4503 33.2746 68.4503 33.3236 68.4503 33.3672C63.8205 28.4161 54.8605 23.7645 53.7112 20.3602C53.624 25.5129 66.5711 31.4336 68.3795 37.5504C64.5667 33.3236 56.8104 29.3366 55.83 26.4334C55.7537 30.7037 66.3587 35.6004 68.0581 40.666C67.3773 44.0539 65.9611 45.9058 64.1364 46.3742C64.1364 46.3742 73.8426 49.7839 73.8426 41.0472C73.8426 38.1713 73.8426 36.107 73.8426 36.107C73.8481 30.8345 72.0125 25.8397 69.1802 22.0106ZM68.4448 37.6321C68.4339 37.6212 68.4285 37.6157 68.4176 37.6049L68.4503 37.534C68.4503 37.5667 68.4448 37.5994 68.4448 37.6321Z" fill="url(#paint0_radial)"/>
<path d="M64.1418 46.3795L64.1636 46.4067C64.1418 46.4012 64.1146 46.4012 64.0928 46.3904C64.0928 46.3904 65.9719 55.0345 73.848 57.9213C73.848 55.5301 73.848 44.2988 73.848 35.6982C73.848 49.348 64.1418 46.3795 64.1418 46.3795Z" fill="white"/>
<path d="M76.1521 36.1119C76.1521 36.1119 76.1521 38.1762 76.1521 41.0521C76.1521 49.7888 85.8583 46.3791 85.8583 46.3791C84.0337 45.9107 82.6175 44.0588 81.9366 40.6708C83.636 35.6053 94.241 30.7086 94.1647 26.4383C93.1843 29.3415 85.428 33.3285 81.6153 37.5553C83.4236 31.4385 96.3707 25.5178 96.2835 20.3651C95.1343 23.7694 86.1742 28.4264 81.5444 33.3721C81.5444 33.3231 81.5499 33.2741 81.5499 33.2305L81.5662 33.2686C83.8975 24.9786 101.507 16.9554 101.387 9.97801C99.9329 14.2864 89.1972 20.0819 82.721 26.3021C82.7536 26.1932 82.7863 26.0843 82.819 25.9753C82.8299 25.9426 82.8408 25.91 82.8517 25.8773C85.9891 16.6722 105.249 7.7666 105.118 0.00488281C103.315 5.35366 88.8486 12.7341 82.0074 20.5394C81.7405 20.8444 81.4791 21.1549 81.2285 21.4762C81.1468 21.5797 81.0651 21.6832 80.9834 21.7922C80.9344 21.8575 80.8799 21.9229 80.8309 21.9937C80.8255 21.9991 80.82 22.0046 80.8146 22.0155C77.9877 25.8392 76.1521 30.8339 76.1521 36.1119ZM81.5499 37.528L81.5826 37.5988C81.5717 37.6097 81.5662 37.6152 81.5554 37.6261C81.5499 37.5988 81.5499 37.5662 81.5499 37.528Z" fill="url(#paint1_radial)"/>
<path d="M85.8583 46.3795L85.8365 46.4067C85.8583 46.4012 85.8856 46.4012 85.9074 46.3904C85.9074 46.3904 84.0282 55.0345 76.1521 57.9213C76.1521 55.5301 76.1521 44.2988 76.1521 35.6982C76.1521 49.348 85.8583 46.3795 85.8583 46.3795Z" fill="white"/>
<path d="M13.3229 87.3883L0 66.6577H6.11679L17.2065 83.6082L28.3017 66.6577H30.7909L18.5083 85.5255V102.939H13.3229V87.3883Z" fill="white"/>
<path d="M51.3635 66.293C61.9902 66.293 69.7628 74.1691 69.7628 84.7958C69.7628 95.4226 61.9902 103.353 51.3635 103.353C40.7367 103.353 32.9641 95.4226 32.9641 84.7958C32.9641 74.1691 40.7422 66.293 51.3635 66.293ZM51.3635 101.485C58.8801 101.485 64.425 94.5892 64.425 84.7958C64.425 75.0024 58.8801 68.1612 51.3635 68.1612C43.9013 68.1612 38.3565 75.0024 38.3565 84.7958C38.3565 94.5892 43.9013 101.485 51.3635 101.485Z" fill="white"/>
<path d="M94.1264 66.293C104.753 66.293 112.526 74.1691 112.526 84.7958C112.526 95.4226 104.753 103.353 94.1264 103.353C83.4997 103.353 75.7271 95.4226 75.7271 84.7958C75.7271 74.1691 83.4997 66.293 94.1264 66.293ZM94.1264 101.485C101.643 101.485 107.188 94.5892 107.188 84.7958C107.188 75.0024 101.643 68.1612 94.1264 68.1612C86.6643 68.1612 81.1194 75.0024 81.1194 84.7958C81.1194 94.5892 86.6588 101.485 94.1264 101.485Z" fill="white"/>
<path d="M147.925 66.6577H150V89.2021C150 97.6501 144.608 103.353 135.539 103.353C126.573 103.353 119.939 97.8081 119.939 89.2021V66.6577H125.124V89.4636C125.124 97.2906 130.724 101.332 136.889 101.332C142.696 101.332 147.93 97.7536 147.93 89.4636V66.6577H147.925Z" fill="white"/>
<path d="M41.3794 120.517C43.5091 121.437 44.5931 122.091 44.5931 123.654C44.5931 125.304 43.3948 126.279 40.8838 126.279C38.2148 126.279 36.7987 125.141 36.7224 123.115H38.1822C38.1822 124.574 39.0863 125.756 40.9274 125.756C42.1257 125.756 43.1333 125.261 43.1333 124.019C43.1333 122.908 42.3435 122.559 40.0668 121.508C38.2257 120.664 37.0329 120.124 37.0329 118.474C37.0329 116.84 38.1549 115.849 40.5951 115.849C43.0625 115.849 44.3588 116.873 44.3915 118.725H42.9154C42.9154 117.308 42.142 116.404 40.6114 116.377C39.2715 116.35 38.4817 117.003 38.4817 118.071C38.4763 119.275 39.5003 119.71 41.3794 120.517Z" fill="white"/>
<path d="M61.0532 121.23H54.9964V126.165H53.5366V115.947H54.9964V120.658H61.0532V115.947H62.513V126.165H61.0532V121.23Z" fill="white"/>
<path d="M77.9821 123.109H73.0473L71.691 126.16H70.9448L75.4385 115.941H76.2391L81.0106 126.16H79.3602L77.9821 123.109ZM73.3142 122.543H77.737L75.5201 117.624L73.3142 122.543Z" fill="white"/>
<path d="M89.4421 115.947H92.9608C95.2103 115.947 96.7136 117.014 96.7136 118.79C96.7136 120.25 95.7387 121.214 94.1754 121.519L97.2692 126.16H95.6951L92.6721 121.633H90.9073V126.16H89.4476V115.947H89.4421ZM90.9019 116.513V121.067H92.6067C94.1809 121.067 95.1885 120.277 95.1885 118.806C95.1885 117.33 94.1809 116.513 92.5904 116.513H90.9019Z" fill="white"/>
<path d="M105.902 115.947H113.125V116.513H107.362V120.658H112.689V121.225H107.362V125.588H113.272V126.154H105.902V115.947Z" fill="white"/>
<defs>
<radialGradient id="paint0_radial" cx="0" cy="0" r="1" gradientUnits="userSpaceOnUse" gradientTransform="translate(45.0228 3.05419) rotate(20.134) scale(58.7744 63.9557)">
<stop offset="0.0754" stop-color="#EAEAEA"/>
<stop offset="0.5559" stop-color="#BDC4CE"/>
</radialGradient>
<radialGradient id="paint1_radial" cx="0" cy="0" r="1" gradientUnits="userSpaceOnUse" gradientTransform="translate(105.025 2.86534) rotate(159.866) scale(58.7744 63.9557)">
<stop offset="0.0754" stop-color="#EAEAEA"/>
<stop offset="0.5559" stop-color="#BDC4CE"/>
</radialGradient>
</defs>
</svg>
